<?xml version="1.0" standalone="no"?><!DOCTYPE svg PUBLIC "-//W3C//DTD SVG 1.1//EN" "http://www.w3.org/Graphics/SVG/1.1/DTD/svg11.dtd"><svg t="1548654120940" class="icon" style="" viewBox="0 0 1024 1024" version="1.1" xmlns="http://www.w3.org/2000/svg" p-id="29378" xmlns:xlink="http://www.w3.org/1999/xlink" width="16" height="16"><defs><style type="text/css"></style></defs><path d="M725.333333 554.666667a42.666667 42.666667 0 1 1 0 85.333333v21.333333a42.666667 42.666667 0 1 1-85.333333 0v-21.333333h-106.666667a42.666667 42.666667 0 0 1-39.957333-57.642667l64-170.666666a42.666667 42.666667 0 0 1 79.914667 29.952L594.901333 554.666667H640v-42.666667a42.666667 42.666667 0 1 1 85.333333 0v42.666667z m128-364.842667V85.333333a42.666667 42.666667 0 1 1 85.333334 0v213.333334a42.666667 42.666667 0 0 1-42.666667 42.666666H682.666667a42.666667 42.666667 0 1 1 0-85.333333h115.584C726.464 175.68 623.317333 128 512 128 299.925333 128 128 299.925333 128 512s171.925333 384 384 384 384-171.925333 384-384a42.666667 42.666667 0 1 1 85.333333 0c0 259.2-210.133333 469.333333-469.333333 469.333333S42.666667 771.2 42.666667 512 252.8 42.666667 512 42.666667c131.648 0 254.08 54.656 341.333333 147.157333z m-409.216 369.706667L392.533333 618.666667H426.666667a42.666667 42.666667 0 1 1 0 85.333333h-128c-36.629333 0-56.234667-43.114667-32.149334-70.72l112.597334-129.024A21.333333 21.333333 0 1 0 341.333333 490.666667a42.666667 42.666667 0 1 1-85.333333 0 106.666667 106.666667 0 0 1 213.333333 0c0 25.152-8.789333 49.066667-25.216 68.864z" fill="" p-id="29379"></path></svg>