<?xml version="1.0" standalone="no"?><!DOCTYPE svg PUBLIC "-//W3C//DTD SVG 1.1//EN" "http://www.w3.org/Graphics/SVG/1.1/DTD/svg11.dtd"><svg t="1548643408817" class="icon" style="" viewBox="0 0 1024 1024" version="1.1" xmlns="http://www.w3.org/2000/svg" p-id="15159" xmlns:xlink="http://www.w3.org/1999/xlink" width="16" height="16"><defs><style type="text/css"></style></defs><path d="M460.8 832h115.2v-64H460.8v64z m-64 0v-64H288a32 32 0 0 1-32-32V531.392c15.4048 6.8608 36.736 14.144 64 21.8688V704h384V460.9344c16.6272 4.1472 37.9584 11.8976 64 23.2448V736a32 32 0 0 1-32 32h-96v64h76.8a32 32 0 1 1 0 64H332.8a32 32 0 1 1 0-64h64zM256 426.0544c69.2416 55.008 152.736 51.232 250.4768-11.328 88.4736-56.6144 175.648-65.088 261.5232-25.3888v44.9024c-82.0672-38.5728-169.2416-29.7792-261.5232 26.368C404.16 522.88 320.6656 526.912 256 472.704v-46.6496z m512-92.704c-13.952-4.1152-35.2832-8.5632-64-13.3504V192H320v217.664c-15.6352-5.856-36.9728-18.4832-64-37.8688V160a32 32 0 0 1 32-32h448a32 32 0 0 1 32 32v173.3504zM428.8 364.8c-35.3472 0-64-28.6528-64-64s28.6528-64 64-64 64 28.6528 64 64-28.6528 64-64 64z" fill="#5C646F" p-id="15160"></path></svg>