<?xml version="1.0" standalone="no"?><!DOCTYPE svg PUBLIC "-//W3C//DTD SVG 1.1//EN" "http://www.w3.org/Graphics/SVG/1.1/DTD/svg11.dtd"><svg t="1548641834966" class="icon" style="" viewBox="0 0 1222 1024" version="1.1" xmlns="http://www.w3.org/2000/svg" p-id="6350" xmlns:xlink="http://www.w3.org/1999/xlink" width="19.09375" height="16"><defs><style type="text/css"></style></defs><path d="M1192.228571 963.047619h-52.114285V617.142857h52.114285a30.47619 30.47619 0 0 0 0-60.952381h-118.857142V91.428571a91.428571 91.428571 0 0 0-91.428572-91.428571H238.628571a91.428571 91.428571 0 0 0-91.428571 91.428571v464.761905H30.47619a30.47619 30.47619 0 0 0 0 60.952381h51.504762V963.047619H30.47619a30.47619 30.47619 0 0 0 0 60.952381h1161.752381a30.47619 30.47619 0 0 0 0-60.952381z m-113.066666-345.904762V963.047619h-184.685715V617.142857h184.685715z m-500.114286 0V963.047619h-195.657143V617.142857z m60.952381 0h194.438095V963.047619H640zM1012.419048 91.428571v464.761905H640V60.952381h341.333333a30.47619 30.47619 0 0 1 31.085715 30.47619zM208.152381 91.428571a30.47619 30.47619 0 0 1 30.47619-30.47619H579.047619v495.238095H208.152381zM142.933333 617.142857h179.504762V963.047619H142.933333z" fill="#040000" p-id="6351"></path></svg>