<?xml version="1.0" standalone="no"?><!DOCTYPE svg PUBLIC "-//W3C//DTD SVG 1.1//EN" "http://www.w3.org/Graphics/SVG/1.1/DTD/svg11.dtd"><svg t="1548643244125" class="icon" style="" viewBox="0 0 1024 1024" version="1.1" xmlns="http://www.w3.org/2000/svg" p-id="12382" xmlns:xlink="http://www.w3.org/1999/xlink" width="16" height="16"><defs><style type="text/css"></style></defs><path d="M262.2116 14.2295l69.439488 0 0 318.560256 73.520128 0 0 65.343488L160.643072 398.133244l0 139.440128 187.392 0 0 424.752128-69.439488 0L278.595584 598.853632 160.451584 598.853632c0 168.8003-25.8079 295.3923-77.4083 379.8077-16.3523-16.3359-36.7677-35.3915-61.2639-57.1679 48.9923-68.0643 72.1439-204.2716 69.4241-408.5924L91.203484 46.901248l69.439488 0 0 285.888512 101.568512 0L262.211484 14.229504zM381.1717 720.8847l110.224384 0c-16.3205-16.2877-29.9203-31.2156-40.8003-44.8 59.8405-27.1524 106.0803-62.4476 138.7356-105.9041L442.435584 570.1806 442.435584 108.517376l171.247616 0c8.1603-24.4961 19.0239-59.8876 32.6236-106.1919l77.4717 8.1756c-2.7197 8.1756-6.8004 19.072-12.2245 32.6717-10.88 29.952-19.0403 51.7437-24.4644 65.3435l248.720384 0 0 461.664256L670.8992 570.180532c-32.6717 54.3037-83.0403 104.5443-151.1035 150.7041l187.855872 0L707.651572 606.533632l73.535488 0 0 114.352128 224.608256 0 0 65.343488L781.187072 786.229248l0 187.872256-73.535488 0L707.651584 786.229248 381.171712 786.229248 381.171712 720.884736zM507.7791 169.7976l0 138.399744 146.624512 0L654.403612 169.797632 507.779072 169.797632zM626.2118 508.9014c16.3359-35.5359 25.8724-82.0163 28.5921-139.4237L507.779072 369.4777l0 139.423744L626.21184 508.901444zM723.4437 369.4776c-2.7197 51.9516-10.8964 98.432-24.4961 139.4237l171.52 0L870.4676 369.477632 723.443712 369.477632zM870.4676 169.7976 723.843072 169.7976l0 138.399744 146.624512 0L870.467584 169.797632z" p-id="12383"></path></svg>