<?xml version="1.0" standalone="no"?><!DOCTYPE svg PUBLIC "-//W3C//DTD SVG 1.1//EN" "http://www.w3.org/Graphics/SVG/1.1/DTD/svg11.dtd"><svg t="1548647651067" class="icon" style="" viewBox="0 0 1024 1024" version="1.1" xmlns="http://www.w3.org/2000/svg" p-id="25894" xmlns:xlink="http://www.w3.org/1999/xlink" width="16" height="16"><defs><style type="text/css"></style></defs><path d="M320 584.533333c-4.266667-6.4-10.666667-8.533333-17.066667-8.533333H298.666667V106.666667c0-12.8-8.533333-21.333333-21.333334-21.333334h-64c-12.8 0-21.333333 8.533333-21.333333 21.333334v469.333333h-4.266667c-6.4 0-12.8 4.266667-17.066666 8.533333l-59.733334 81.066667c-2.133333 4.266667-4.266667 8.533333-4.266666 12.8v157.866667c0 4.266667 2.133333 8.533333 4.266666 12.8L170.666667 930.133333c4.266667 4.266667 10.666667 8.533333 17.066666 8.533334h115.2c6.4 0 12.8-4.266667 17.066667-8.533334l59.733333-81.066666c2.133333-4.266667 4.266667-8.533333 4.266667-12.8v-157.866667c0-4.266667-2.133333-8.533333-4.266667-12.8L320 584.533333zM234.666667 128h21.333333v448h-21.333333V128z m106.666666 701.866667L292.266667 896H198.4L149.333333 829.866667v-142.933334L198.4 618.666667h93.866667l49.066666 66.133333v145.066667zM448 85.333333h42.666667v853.333334h-42.666667zM512 85.994667l42.538667-3.2 64 853.077333-42.56 3.2zM874.666667 85.333333v277.333334l-12.8 21.333333h-123.733334l-12.8-27.733333V85.333333h-42.666666v277.333334c0 4.266667 0 6.4 2.133333 8.533333l21.333333 42.666667c4.266667 6.4 10.666667 12.8 19.2 12.8h21.333334v490.666666c0 12.8 8.533333 21.333333 21.333333 21.333334h64c12.8 0 21.333333-8.533333 21.333333-21.333334V426.666667h21.333334c8.533333 0 14.933333-4.266667 19.2-10.666667l21.333333-38.4c2.133333-2.133333 2.133333-6.4 2.133333-10.666667V85.333333h-42.666666z m-64 810.666667h-21.333334V426.666667h21.333334v469.333333z" p-id="25895"></path><path d="M746.666667 85.333333h42.666666v234.666667h-42.666666zM810.666667 85.333333h42.666666v234.666667h-42.666666z" p-id="25896"></path></svg>