<?xml version="1.0" standalone="no"?><!DOCTYPE svg PUBLIC "-//W3C//DTD SVG 1.1//EN" "http://www.w3.org/Graphics/SVG/1.1/DTD/svg11.dtd"><svg t="1548646103169" class="icon" style="" viewBox="0 0 1024 1024" version="1.1" xmlns="http://www.w3.org/2000/svg" p-id="23641" xmlns:xlink="http://www.w3.org/1999/xlink" width="16" height="16"><defs><style type="text/css"></style></defs><path d="M882.3 553.3c-3.6-0.5 1.1 0.3 2.1 0.5 1.6 0.4 3.2 0.8 4.8 1.3 0.9 0.3 5.2 2 2.2 0.7 1.7 0.7 3.4 1.6 5 2.5 2.7 1.5 5.4 3.2 7.9 5.1-2.5-1.9 1.2 1.1 1.9 1.7 1.4 1.3 2.8 2.7 4.1 4.1 1.2 1.3 2.3 2.6 3.4 3.9 1.5 1.7-1.3-1.8 0.1 0.1 0.5 0.7 1 1.4 1.5 2.2 2.2 3.2 4.1 6.5 5.9 9.9 0.4 0.8 2.3 5.1 1.4 2.7 0.6 1.5 1.2 3.1 1.7 4.6 1.3 3.9 2.4 7.8 3.2 11.8 0.1 0.6 1 5.9 0.7 3.3 0.3 2 0.4 4 0.6 6 0.2 2.6 0.2 5.1 0.2 7.7 0 5.1 0.1 10.2-0.2 15.3-0.1 1-0.1 2-0.2 3 0 0.4-0.4 3.5-0.2 1.7 0.2-1.7-0.2 1.3-0.3 1.7-0.1 0.7-0.3 1.4-0.4 2.2-0.8 4.2-1.9 8.4-3.3 12.5-0.5 1.6-1.1 3.1-1.7 4.6-0.9 2.2 0.9-1.9-0.1 0.3-0.4 0.8-0.8 1.7-1.2 2.5-1.7 3.5-3.6 6.8-5.7 10-1 1.5-2 2.9-3.1 4.3 1.8-2.4-1.3 1.5-1.8 2-2.3 2.5-4.7 4.9-7.3 7.1-0.6 0.5-1.3 1.1-1.9 1.6 2.3-1.8 0.5-0.4 0-0.1-1.4 0.9-2.7 1.9-4.2 2.7-1.4 0.8-2.9 1.6-4.3 2.4-0.7 0.4-1.5 0.7-2.2 1 1.9-0.9 1-0.4-0.4 0.1-2.9 1-5.8 1.9-8.8 2.5-0.8 0.2-1.6 0.3-2.4 0.4 3.2-0.6 1.1-0.1 0.3-0.1-1.7 0.1-3.3 0.2-5 0.2H204.2c-2.5 0-5 0-7.5-0.2-1.5-0.1-2.9-0.2-4.4-0.4-2.9-0.3-0.3-0.1 0.2 0-1.2-0.2-2.5-0.4-3.7-0.6-3.1-0.6-6.2-1.4-9.2-2.3-1.6-0.5-3.2-1-4.8-1.6-0.8-0.3-5.9-2.3-2.9-1.1-6.3-2.7-12.4-6.1-18.1-10-1.5-1-2.9-2-4.3-3-2.3-1.7-0.6-0.4-0.1-0.1-0.7-0.6-1.4-1.1-2.1-1.7-2.9-2.4-5.7-5-8.4-7.7-2.4-2.4-4.7-4.9-6.9-7.5-1.2-1.4-2.3-2.8-3.5-4.2 1.6 2 0.1 0.1-0.2-0.2-0.8-1.1-1.6-2.2-2.4-3.4-4.2-6.2-8-12.7-11.2-19.4-0.4-0.8-2.3-5.2-1.3-2.9l-2.1-5.4c-1.3-3.6-2.5-7.3-3.5-11.1s-1.9-7.6-2.5-11.5c-0.2-1-0.3-2-0.5-2.9-0.1-0.4-0.4-2.9-0.1-0.5-0.3-2.2-0.5-4.5-0.6-6.8-0.3-4.1-0.4-8.1-0.4-12.2v-27.5c0-7.3-0.1-14.5 0.1-21.8 0.1-3.8 0.3-7.6 0.7-11.4l0.3-3c-0.3 2.5 0-0.1 0.1-0.5 0.4-2.5 0.8-4.9 1.3-7.3 1.5-7.6 3.7-15.1 6.4-22.4 0.3-0.9 2.1-5.3 1.1-3 0.7-1.7 1.5-3.4 2.3-5.1 1.6-3.4 3.3-6.6 5.2-9.8 1.8-3.2 3.8-6.2 5.9-9.2 1-1.5 2.1-2.9 3.2-4.4-1.8 2.3 1.8-2.2 2.3-2.7 4.6-5.3 9.6-10.1 15-14.6 1.7-1.5-1.8 1.3 0 0l2.1-1.5c1.4-1 2.8-1.9 4.2-2.9 3-1.9 6.1-3.7 9.3-5.3l4.5-2.1c-2.7 1.2 0.6-0.2 1.6-0.6 3.3-1.2 6.7-2.2 10.1-3 1.6-0.4 3.2-0.7 4.9-1 0.8-0.1 1.6-0.3 2.5-0.4-0.6 0.1-3.1 0.3-0.3 0.1 2.9-0.2 5.7-0.3 8.6-0.3h643.7c10.4 0 20.8-0.1 31.3 0h0.6c1.3 0 2.5 0.1 3.7 0.2 0.9 0 2.5 0.7-0.3-0.1 1 0.3 2 0.4 3 0.6 1.6 0.4 3.1 1.1 4.7 1.4 2.1 0.4-2-1.2-0.2-0.1 0.5 0.3 1.1 0.5 1.7 0.8 1.5 0.8 2.9 1.6 4.3 2.5 0.7 0.5 1.4 0.9 2.1 1.4 3.2 2.1-1.9-1.9 1 0.8 2.4 2.3 4.6 4.5 6.8 6.9 1.5 1.7-1.3-1.8 0.1 0.1 0.5 0.7 1 1.5 1.5 2.2 1.1 1.7 2.2 3.4 3.2 5.2 0.9 1.6 1.7 3.3 2.5 5-1.2-2.6 0.9 2.4 1.1 3 1.3 3.7 2.1 7.4 2.9 11.2 0.6 3 0.2 1.1 0.1 0.4l0.3 3c0.2 2 0.2 4 0.2 6.1 0 2.1-0.1 4.2-0.2 6.3-0.1 1-0.2 2.1-0.3 3.1 0.1-0.7 0.5-2.4-0.1 0.5-0.8 3.6-1.5 7.2-2.7 10.8-0.3 0.9-0.6 1.8-1 2.7-0.8 2.3 0.9-1.8-0.1 0.4-0.8 1.7-1.6 3.4-2.5 5-0.8 1.4-1.6 2.8-2.5 4.2-0.3 0.5-3.4 4.8-1.6 2.5-2.2 2.7-4.6 5.3-7.2 7.6-0.6 0.6-1.3 1.1-2 1.7 0.5-0.4 2.3-1.5 0 0-1.4 0.9-2.8 1.9-4.2 2.7-1.3 0.7-2.6 1.3-3.9 2-1.8 1 2.2-0.4 0.2-0.1-0.9 0.2-2 0.7-2.9 1-7.7 2.4-12.7 10.5-10.5 18.5 2.1 7.6 10.7 12.9 18.5 10.5 34.6-10.8 54.3-47.2 52.9-82.1-1.3-33-21.9-69.6-56.6-76.3-10.9-2.1-22.4-1.3-33.4-1.3H196.7c-20 0-39.2 5.1-56.2 15.6-28 17.3-47.7 45.4-58.2 76.3-8.1 23.7-8.5 48.1-8.5 72.7 0 23.5-0.6 46.8 6 69.7 9.3 32.1 29 60.4 56.1 79.8 21.7 15.6 46.6 22 73.1 22h642.8c9.4 0 19.2 0.6 28.6-0.3 34.2-3.2 59.6-28.3 71.6-59.3 5.4-14 7.1-29 7.1-44 0-14.9-1.3-29.8-6.6-43.8-11.8-30.9-36.4-54.3-69.9-58.6-7.8-1-15.3 7.6-15 15 0.1 8.9 6.3 13.9 14.7 15z" fill="" p-id="23642"></path><path d="M881.1 523H439.6c-20.4 0-40.9-0.6-61.4 0h-0.8c-7.8 0-15.4 6.9-15 15 0.4 8.1 6.6 15 15 15H818.9c20.4 0 40.9 0.6 61.4 0h0.8c7.8 0 15.4-6.9 15-15-0.3-8.2-6.6-15-15-15z" fill="" p-id="23643"></path></svg>