<?xml version="1.0" standalone="no"?><!DOCTYPE svg PUBLIC "-//W3C//DTD SVG 1.1//EN" "http://www.w3.org/Graphics/SVG/1.1/DTD/svg11.dtd"><svg t="1548643477896" class="icon" style="" viewBox="0 0 1024 1024" version="1.1" xmlns="http://www.w3.org/2000/svg" p-id="16669" xmlns:xlink="http://www.w3.org/1999/xlink" width="16" height="16"><defs><style type="text/css"></style></defs><path d="M953.6 149.6c-4-2.8-9.2-3.5-13.8-1.8l-134.4 49.7-528.1-80.7-0.4-0.1c-50.5-6.3-100.2 9.7-140 44.8C90.6 202.4 64 263.7 64 329.7c0 66.7 26.9 128.7 73.8 169.9C167.7 525.9 203 541.4 240 545v286.8c0 43.6 35.4 79 79 79s79-35.4 79-79v-207h9.3c15.3 0 27.7-12.4 27.7-27.7v-74.3c0-0.8-0.1-1.6-0.3-2.4l370.9-57.2L940.1 510c1.6 0.6 3.3 0.8 4.9 0.8 3.1 0 6.1-0.9 8.7-2.8 4-2.8 6.3-7.4 6.3-12.2v-334c0-4.8-2.4-9.4-6.4-12.2zM94 329.7c0-57.4 22.9-110.5 62.7-145.8 28.5-25.2 63.1-38.6 98.7-38.6 5.8 0 11.7 0.4 17.5 1.1l519 79.3V435l-516.6 79.7c-42.3 5.4-84.1-8-117.8-37.6C117.2 441.6 94 387.8 94 329.7z m225 551.2c-27 0-49-22-49-49V545.4c3.1-0.2 6.3-0.5 9.4-0.9l88.6-13.7v301.1c0 27-22 49-49 49z m96-283.7c0 4.2-3.5 7.7-7.7 7.7H398v-78.7l17-2.6v73.6z m515-122.4l-108-37.6V223.3l108-39.9v291.4z" p-id="16670"></path><path d="M320 579.9c-5.5 0-10 4.5-10 10v77c0 5.5 4.5 10 10 10s10-4.5 10-10v-77c0-5.6-4.5-10-10-10zM422.4 307.1h0.8c0.6 0 1.2 0 1.8-0.1 5.2-0.5 9.8-3.2 13.5-7.7 5.9-7.3 7.6-18.7 6.3-30.4-1.9-18.1-11.4-31.5-24.2-32.1 0 0-1.8 0-2.8 0.1-5.6 0.6-10.8 3.5-14.8 8.5-5.9 7.2-8.7 18-7.6 28.8 2 17.9 13.8 32.3 27 32.9z m-3.8-49c0.5-0.6 0.8-0.9 1.1-1.1 1.4 1.2 4.4 5.7 5.3 14.1 1 9.3-0.8 14.3-1.9 15.6l-0.2 0.2c-2.1-1.1-6.6-6.2-7.5-14.8-0.6-6.2 1.2-11.5 3.2-14zM507.2 346.5c2.2 1 4.5 1.5 6.9 1.5 9.8 0 19.7-8.2 24.7-20.4 3.8-9.2 4.2-19.6 1.2-27.7-2.1-5.6-5.6-9.7-10.2-11.7-2.1-0.9-4.3-1.4-6.6-1.4-9.6 0-19.3 8.9-24.2 22.2-6.1 16.4-2.6 32.5 8.2 37.5z m10.5-30.7c1.2-3.2 2.7-5.6 4-7.1 0.5 2.9 0.3 7.1-1.5 11.3-1.3 3.1-2.9 5.1-4.2 6.4-0.2-2.4 0.1-6.1 1.7-10.6zM475.1 306.9c0.6 0.1 1.2 0.1 1.8 0.1h0.8c13.2-0.6 25-15 26.9-32.9 1.1-10.8-1.7-21.6-7.6-28.8-4.1-5-9-7.8-14.6-8.3-0.9-0.1-2.9-0.1-2.9-0.1-12.8 0.6-22.3 13.9-24.2 32-1.2 11.7 0.4 23.1 6.3 30.4 3.6 4.5 8.3 7.1 13.5 7.6z m0-35.9c0.9-8.5 4-12.9 5.3-14 0.1 0.1 0.5 0.4 1 1 2.1 2.5 3.8 7.9 3.2 14.1-0.9 8.6-5.3 13.7-7.5 14.8l-0.2-0.2c-0.9-1.4-2.8-6.4-1.8-15.7zM388.7 392.6c0 10.4 5.2 18.8 10.4 22.3 6.3 4.2 10.8 5.9 20.1 5.9 11.1 0 14-3.9 19.2-7.3 3.7-2.5 7-4.6 11.6-4.6s7.8 2.1 11.6 4.6c5.2 3.4 8.2 7.3 19.2 7.3 9.3 0 13.8-1.7 20.1-5.9 5.1-3.4 10.4-11.8 10.4-22.3 0-35-30.6-71.4-61.3-71.4-30.6 0-61.3 36.4-61.3 71.4z m61.3-51.4c8.5 0 18.6 5.8 26.9 15.6 9 10.6 14.4 24 14.4 35.8 0 3.2-1.3 5.3-1.8 5.9-2.8 1.9-3.6 2.3-8.7 2.3-2.1 0-2.8-0.2-2.8-0.2-0.3-0.2-1.3-0.9-2.1-1.4-0.9-0.7-2-1.5-3.3-2.3-4.8-3.1-12-7.9-22.6-7.9-10.6 0-17.8 4.8-22.6 7.9-1.3 0.8-2.4 1.7-3.3 2.3-0.7 0.5-1.7 1.3-2 1.4 0 0-0.7 0.2-2.9 0.2-5 0-5.8-0.4-8.7-2.3-0.5-0.6-1.8-2.7-1.8-5.9 0-11.9 5.4-25.3 14.4-35.8 8.3-9.8 18.4-15.6 26.9-15.6zM386 348c2.4 0 4.7-0.5 6.9-1.5 10.8-4.9 14.3-21.1 8.2-37.6-4.9-13.3-14.7-22.2-24.2-22.2-2.2 0-4.5 0.5-6.6 1.4-4.6 2.1-8.1 6.1-10.2 11.7-3 8.1-2.6 18.5 1.2 27.7 5 12.3 14.9 20.5 24.7 20.5z m-7.7-39.3c1.3 1.5 2.8 3.9 4 7.1 1.7 4.5 1.9 8.1 1.6 10.5-1.3-1.3-2.9-3.4-4.2-6.4-1.6-4.1-1.9-8.3-1.4-11.2zM221 175c-30.8 13-56.8 34.8-75.1 62.9-3 4.6-1.7 10.8 2.9 13.8 1.7 1.1 3.6 1.6 5.4 1.6 3.3 0 6.5-1.6 8.4-4.5 16.1-24.8 39-44 66.1-55.4 5.1-2.2 7.5-8 5.3-13.1-2.1-5.1-7.9-7.5-13-5.3zM144.5 260.1c-5.1-2.1-11 0.3-13 5.5-2.5 6-4.6 12.2-6.3 18.4-1.5 5.3 1.6 10.8 7 12.3 0.9 0.2 1.8 0.4 2.7 0.4 4.4 0 8.4-2.9 9.6-7.3 1.5-5.5 3.4-10.9 5.6-16.2 1.9-5.2-0.5-11-5.6-13.1z" p-id="16671"></path></svg>