<?xml version="1.0" standalone="no"?><!DOCTYPE svg PUBLIC "-//W3C//DTD SVG 1.1//EN" "http://www.w3.org/Graphics/SVG/1.1/DTD/svg11.dtd"><svg t="1548643163779" class="icon" style="" viewBox="0 0 1042 1024" version="1.1" xmlns="http://www.w3.org/2000/svg" p-id="8824" xmlns:xlink="http://www.w3.org/1999/xlink" width="16.28125" height="16"><defs><style type="text/css"></style></defs><path d="M236.544 161.792c6.656 3.584 13.824 4.096 18.944 0.512 4.608-3.072 3.584-6.656-3.584-10.752-23.04-13.824-25.6-31.232-8.192-48.128 5.12-4.608 10.24-9.216 14.848-13.824 8.192-8.192 13.824-16.896 14.336-24.576 0-12.288-12.8-29.696-24.576-35.84-4.608-2.56-11.776-2.56-15.872 0-4.608 2.56-5.12 5.632-1.024 9.216 3.072 3.072 6.656 5.632 9.728 8.704 10.24 9.728 11.776 19.456 3.072 29.696-5.632 6.656-12.288 12.8-18.944 18.944-25.088 22.016-20.48 48.64 11.264 66.048zM330.752 162.816c5.632 3.072 12.8 2.56 17.408-1.024 4.096-3.072 3.072-6.144-2.56-9.728-25.6-15.36-27.648-32.768-7.68-50.688 7.168-6.144 13.824-12.8 18.944-19.456C373.76 60.928 363.52 47.616 340.992 29.696c-3.584-3.072-11.776-2.56-16.384 0-4.096 2.56-4.608 5.632-1.024 9.216 3.072 3.072 6.656 5.632 9.728 8.704 10.24 9.216 11.264 18.944 3.072 29.184-5.632 6.656-12.288 12.8-18.944 19.456-9.728 8.704-15.872 18.432-16.384 30.72 1.024 13.824 11.264 26.112 29.696 35.84zM966.656 225.28h-9.728v-4.096c0-23.552-18.432-43.008-40.96-43.008s-40.96 19.456-40.96 43.008v4.096h-18.944v-4.096c0-23.552-18.432-43.008-40.96-43.008s-40.96 19.456-40.96 43.008v4.096H752.64v-4.096c0-23.552-14.848-43.008-37.376-43.008s-40.96 19.456-40.96 43.008v4.096H655.36v-4.096c0-23.552-18.432-43.008-40.96-43.008s-40.96 19.456-40.96 43.008v4.096h-13.824v-4.096c0-23.552-18.432-43.008-40.96-43.008s-40.96 19.456-40.96 43.008v4.096h-15.36v-4.096c0-23.552-18.432-43.008-40.96-43.008s-40.96 19.456-40.96 43.008v4.096h-18.944v-4.096c0-23.552-18.432-43.008-40.96-43.008s-37.376 19.456-37.376 43.008v4.096H261.12v-4.096c0-23.552-18.432-43.008-40.96-43.008s-40.96 19.456-40.96 43.008v4.096h-18.944v-4.096c0-23.552-18.432-43.008-40.96-43.008s-40.96 19.456-40.96 43.008v4.096h-9.728c-15.872 0-28.16 14.336-28.16 31.744s12.8 31.744 28.16 31.744l12.8 1.024v66.048c0 23.552 14.848 45.568 37.376 45.568 31.232 0 44.544-22.016 44.544-45.568V289.792h15.36V358.4c0 23.552 18.432 43.008 40.96 43.008s40.96-19.456 40.96-43.008V288.768h10.24l11.264 1.024v66.048c0 23.552 14.848 45.568 37.376 45.568 31.232 0 44.544-22.016 44.544-45.568V289.792h15.36V358.4c0 23.552 18.432 43.008 40.96 43.008s40.96-19.456 40.96-43.008V288.768h15.36V358.4c0 23.552 18.432 43.008 40.96 43.008s40.96-19.456 40.96-43.008V288.768h13.824V358.4c0 23.552 18.432 43.008 40.96 43.008s40.96-19.456 40.96-43.008V289.792h15.36v66.048c0 23.552 13.312 45.568 44.544 45.568 22.528 0 37.376-22.016 37.376-45.568V289.792l11.264-1.024h10.24V358.4c0 23.552 18.432 43.008 40.96 43.008s40.96-19.456 40.96-43.008V289.792h15.36v66.048c0 23.552 13.312 45.568 44.544 45.568 22.528 0 37.376-22.016 37.376-45.568V289.792l12.8-1.024c15.36 0 28.16-14.336 28.16-31.744s-11.264-31.744-26.624-31.744zM78.336 263.168h-9.728c-3.072 0-5.632-3.072-5.632-6.656 0-3.584 2.56-6.656 5.632-6.656h9.728v13.312z m62.976 92.672c0 10.752-7.68 22.016-22.016 22.016-10.24 0-15.36-11.264-15.36-22.016V219.136c0-10.752 9.216-15.872 22.528-15.872 7.168 0 14.848 5.12 14.848 15.872v136.704zM179.2 266.24h-15.36v-15.872h15.36V266.24z m59.904 23.552V358.4c0 10.752-8.192 19.456-18.432 19.456s-18.432-8.704-18.432-19.456V220.672c0-10.752 8.192-19.456 18.432-19.456s18.432 8.704 18.432 19.456v69.12z m43.52-23.552H261.12v-15.872h20.992V266.24z m59.904 89.6c0 10.752-7.68 22.016-22.016 22.016-10.24 0-15.36-11.264-15.36-22.016V219.136c0-10.752 9.216-15.872 22.528-15.872 7.168 0 14.848 5.12 14.848 15.872v136.704zM379.904 266.24h-14.848v-15.872h15.36l-0.512 15.872z m59.904 23.552V358.4c0 10.752-8.192 19.456-18.432 19.456s-18.432-8.704-18.432-19.456V220.672c0-10.752 8.192-19.456 18.432-19.456s18.432 8.704 18.432 19.456v69.12z m37.376-23.552h-14.848v-15.872h14.336V266.24z m59.904 23.552V358.4c0 10.752-8.192 19.456-18.432 19.456s-18.432-8.704-18.432-19.456V220.672c0-10.752 8.192-19.456 18.432-19.456s18.432 8.704 18.432 19.456v69.12zM573.44 266.24h-13.824v-15.872h13.824V266.24z m59.904 23.552V358.4c0 10.752-8.192 19.456-18.432 19.456s-18.432-8.704-18.432-19.456V220.672c0-10.752 8.192-19.456 18.432-19.456s18.432 8.704 18.432 19.456v69.12zM670.72 266.24h-15.36v-15.872h15.36V266.24z m59.904 89.6c0 10.752-5.12 22.016-15.36 22.016-14.336 0-22.016-11.264-22.016-22.016V219.136c0-10.752 7.68-15.872 14.848-15.872 13.312 0 22.528 5.12 22.528 15.872v136.704z m43.52-89.6H752.64v-15.872h20.992l0.512 15.872z m59.904 23.552V358.4c0 10.752-8.192 19.456-18.432 19.456s-18.432-8.704-18.432-19.456V220.672c0-10.752 8.192-19.456 18.432-19.456s18.432 8.704 18.432 19.456v69.12z m37.376-23.552h-14.848v-15.872h15.36V266.24z m59.904 89.6c0 10.752-5.12 22.016-15.36 22.016-14.336 0-22.016-11.264-22.016-22.016V219.136c0-10.752 7.68-15.872 14.848-15.872 13.312 0 22.528 5.12 22.528 15.872v136.704z m35.328-92.672h-9.728v-12.8h9.728c3.072 0 5.632 3.072 5.632 6.656 0 3.584-2.56 6.144-5.632 6.144zM140.8 159.744c2.048 1.536 4.608 2.56 7.168 3.584 5.12 2.048 12.288 1.536 15.872-1.536 3.584-2.56 2.56-6.656-2.048-9.216-1.536-1.024-2.56-1.536-4.096-2.56-20.48-13.824-23.04-30.208-6.144-46.08 5.632-5.632 11.776-10.752 17.408-16.384 7.168-7.68 12.288-15.872 12.288-25.088 0-13.824-12.288-23.552-24.576-33.28-3.584-3.072-11.776-2.56-15.872 0-4.096 2.56-4.608 5.632-1.024 9.216 3.072 3.072 6.144 5.632 9.728 8.704 10.24 9.728 11.264 19.456 2.56 29.696-5.632 6.656-12.288 12.8-18.944 18.944-24.064 21.504-20.992 46.08 7.68 64zM513.024 161.792c6.656 3.584 13.824 4.096 18.944 0.512 4.608-3.072 3.584-6.656-3.584-10.752-23.04-13.824-25.6-31.232-8.192-48.128 5.12-4.608 10.24-9.216 14.848-13.824 8.192-8.192 13.824-16.896 14.336-24.576 0-12.288-12.8-29.696-24.576-35.84-4.608-2.56-11.776-2.56-15.872 0-4.608 2.56-5.12 5.632-1.024 9.216 3.072 3.072 6.656 5.632 9.728 8.704 10.24 9.728 11.776 19.456 3.072 29.696-5.632 6.656-12.288 12.8-18.944 18.944-25.088 22.016-20.48 48.64 11.264 66.048zM607.232 162.816c5.632 3.072 12.8 2.56 17.408-1.024 4.096-3.072 3.072-6.144-2.56-9.728-25.6-15.36-27.648-32.768-7.68-50.688 7.168-6.144 13.824-12.8 18.944-19.456 16.384-21.504 6.144-34.816-16.384-52.736-3.584-3.072-11.776-2.56-16.384 0-4.096 2.56-4.608 5.632-1.024 9.216 3.072 3.072 6.656 5.632 9.728 8.704 10.24 9.216 11.264 18.944 3.072 29.184-5.632 6.656-12.288 12.8-18.944 19.456-9.728 8.704-15.872 18.432-16.384 30.72 1.536 14.336 11.776 26.624 30.208 36.352zM417.28 159.744c2.048 1.536 4.608 2.56 7.168 3.584 5.12 2.048 12.288 1.536 15.872-1.536 3.584-2.56 2.56-6.656-2.048-9.216-1.536-1.024-2.56-1.536-4.096-2.56-20.48-13.824-23.04-30.208-6.144-46.08 5.632-5.632 11.776-10.752 17.408-16.384 7.168-7.68 12.288-15.872 12.288-25.088 0-13.824-12.288-23.552-24.576-33.28-3.584-3.072-11.776-2.56-15.872 0-4.096 2.56-4.608 5.632-1.024 9.216 3.072 3.072 6.144 5.632 9.728 8.704 10.24 9.728 11.264 19.456 2.56 29.696-5.632 6.656-12.288 12.8-18.944 18.944-24.064 21.504-20.992 46.08 7.68 64zM789.504 161.792c6.656 3.584 13.824 4.096 18.944 0.512 4.608-3.072 3.584-6.656-3.584-10.752-23.04-13.824-25.6-31.232-8.192-48.128 5.12-4.608 10.24-9.216 14.848-13.824 8.192-8.192 13.824-16.896 14.336-24.576 0-12.288-12.8-29.696-24.576-35.84-4.608-2.56-11.776-2.56-15.872 0-4.608 2.56-5.12 5.632-1.024 9.216 3.072 3.072 6.656 5.632 9.728 8.704 10.24 9.728 11.776 19.456 3.072 29.696-5.632 6.656-12.288 12.8-18.944 18.944-25.088 22.016-20.48 48.64 11.264 66.048zM883.712 162.816c5.632 3.072 12.8 2.56 17.408-1.024 4.096-3.072 3.072-6.144-2.56-9.728-25.6-15.36-27.648-32.768-7.68-50.688 7.168-6.144 13.824-12.8 18.944-19.456 16.384-21.504 6.144-34.816-16.384-52.736-3.584-3.072-11.776-2.56-16.384 0-4.096 2.56-4.608 5.632-1.024 9.216 3.072 3.072 6.656 5.632 9.728 8.704 10.24 9.216 11.264 18.944 3.072 29.184-5.632 6.656-12.288 12.8-18.944 19.456-9.728 8.704-15.872 18.432-16.384 30.72 1.536 14.336 11.776 26.624 30.208 36.352zM693.76 159.744c2.048 1.536 4.608 2.56 7.168 3.584 5.12 2.048 12.288 1.536 15.872-1.536 3.584-2.56 2.56-6.656-2.048-9.216-1.536-1.024-2.56-1.536-4.096-2.56-20.48-13.824-23.04-30.208-6.144-46.08 5.632-5.632 11.776-10.752 17.408-16.384 7.168-7.68 12.288-15.872 12.288-25.088 0-13.824-12.288-23.552-24.576-33.28-3.584-3.072-11.776-2.56-15.872 0-4.096 2.56-4.608 5.632-1.024 9.216 3.072 3.072 6.144 5.632 9.728 8.704 10.24 9.728 11.264 19.456 2.56 29.696-5.632 6.656-12.288 12.8-18.944 18.944-24.064 21.504-20.992 46.08 7.68 64z" p-id="8825"></path><path d="M45.056 890.88h945.664c15.36 0 27.136-12.288 27.136-27.136v-6.144c0-14.848-12.288-27.136-27.136-27.136H23.552v24.576h966.656c1.536 0 2.56 1.024 2.56 2.56v6.144c0 1.536-1.024 2.56-2.56 2.56H45.056c-14.848 0-27.136 12.288-27.136 27.136v7.168c0 14.848 12.288 27.136 27.136 27.136h729.6v-0.512h215.552c1.536 0 2.56 1.024 2.56 2.56v6.144c0 1.536-1.024 2.56-2.56 2.56H45.056c-14.848 0-27.136 12.288-27.136 27.136v7.168c0 14.848 12.288 27.136 27.136 27.136h965.632v-24.576H45.056c-1.536 0-2.56-1.024-2.56-2.56v-7.168c0-1.536 1.024-2.56 2.56-2.56h945.664c15.36 0 27.136-12.288 27.136-27.136v-6.144c0-14.848-12.288-27.136-27.136-27.136H96.256v0.512h-51.2c-1.536 0-2.56-1.024-2.56-2.56v-7.168c0-1.536 1.024-2.56 2.56-2.56zM228.864 800.256c6.656 3.584 14.336 4.096 19.456 0.512 4.608-3.072 3.584-6.656-3.584-11.264-23.552-14.336-26.624-31.744-8.192-49.152 5.12-4.608 10.24-9.216 14.848-13.824 8.192-8.192 14.336-17.408 14.336-25.088 0-12.8-12.8-30.208-25.088-36.864-4.608-2.56-11.776-2.56-16.384 0-4.608 2.56-5.12 5.632-1.024 9.216 3.072 3.072 6.656 6.144 9.728 8.704 10.752 9.728 11.776 19.968 3.072 30.208-5.632 6.656-12.288 13.312-19.456 19.456-25.088 23.04-19.968 50.176 12.288 68.096zM325.12 801.28c5.632 3.072 13.312 2.56 17.92-1.024 4.096-3.072 3.072-6.656-2.56-9.728-26.112-15.872-28.672-33.28-7.68-51.712 7.168-6.144 14.336-12.8 19.456-19.968 16.896-22.016 6.656-35.328-16.896-53.76-4.096-3.072-12.288-2.56-16.896 0-4.608 2.56-4.608 5.632-1.024 9.216 3.072 3.072 6.656 6.144 9.728 8.704 10.24 9.728 11.776 19.456 3.072 29.696-5.632 6.656-12.8 13.312-19.456 19.968-9.728 9.216-16.384 18.944-16.384 31.232 1.536 14.336 11.776 27.136 30.72 37.376zM131.072 798.208c2.048 1.536 4.608 3.072 7.168 4.096 5.12 2.048 12.288 1.536 16.384-1.536 3.584-3.072 2.56-6.656-2.048-9.728-1.536-1.024-2.56-1.536-4.096-2.56-20.992-13.824-23.552-30.72-6.656-47.104 5.632-5.632 12.288-11.264 17.408-16.896 7.168-7.68 12.8-15.872 12.288-25.6 0-13.824-12.8-24.064-25.6-34.304-3.584-3.072-11.776-2.56-16.384 0-4.608 2.56-4.608 5.632-1.024 9.216 3.072 3.072 6.656 6.144 9.728 8.704 10.752 9.728 11.776 19.968 2.56 30.208-5.632 6.656-12.288 13.312-19.456 19.456-23.04 22.528-19.456 47.104 9.728 66.048zM511.488 800.256c6.656 3.584 14.336 4.096 19.456 0.512 4.608-3.072 3.584-6.656-3.584-11.264-23.552-14.336-26.624-31.744-8.192-49.152 5.12-4.608 10.24-9.216 14.848-13.824 8.192-8.192 14.336-17.408 14.336-25.088 0-12.8-12.8-30.208-25.088-36.864-4.608-2.56-11.776-2.56-16.384 0-4.608 2.56-5.12 5.632-1.024 9.216 3.072 3.072 6.656 6.144 9.728 8.704 10.752 9.728 11.776 19.968 3.072 30.208-5.632 6.656-12.288 13.312-19.456 19.456-25.088 23.04-19.968 50.176 12.288 68.096zM607.744 801.28c5.632 3.072 13.312 2.56 17.92-1.024 4.096-3.072 3.072-6.656-2.56-9.728-26.112-15.872-28.672-33.28-7.68-51.712 7.168-6.144 14.336-12.8 19.456-19.968 16.896-22.016 6.656-35.328-16.896-53.76-4.096-3.072-12.288-2.56-16.896 0-4.608 2.56-4.608 5.632-1.024 9.216 3.072 3.072 6.656 6.144 9.728 8.704 10.24 9.728 11.776 19.456 3.072 29.696-5.632 6.656-12.8 13.312-19.456 19.968-9.728 9.216-16.384 18.944-16.384 31.232 1.024 14.336 11.776 27.136 30.72 37.376zM413.696 798.208c2.048 1.536 4.608 3.072 7.168 4.096 5.12 2.048 12.288 1.536 16.384-1.536 3.584-3.072 2.56-6.656-2.048-9.728-1.536-1.024-2.56-1.536-4.096-2.56-20.992-13.824-23.552-30.72-6.656-47.104 5.632-5.632 12.288-11.264 17.408-16.896 7.168-7.68 12.8-15.872 12.288-25.6 0-13.824-12.8-24.064-25.6-34.304-3.584-3.072-11.776-2.56-16.384 0-4.608 2.56-4.608 5.632-1.024 9.216 3.072 3.072 6.656 6.144 9.728 8.704 10.752 9.728 11.776 19.968 2.56 30.208-5.632 6.656-12.288 13.312-19.456 19.456-23.04 22.528-19.456 47.104 9.728 66.048zM794.112 800.256c6.656 3.584 14.336 4.096 19.456 0.512 4.608-3.072 3.584-6.656-3.584-11.264-23.552-14.336-26.624-31.744-8.192-49.152 5.12-4.608 10.24-9.216 14.848-13.824 8.192-8.192 14.336-17.408 14.336-25.088 0-12.8-12.8-30.208-25.088-36.864-4.608-2.56-11.776-2.56-16.384 0-4.608 2.56-5.12 5.632-1.024 9.216 3.072 3.072 6.656 6.144 9.728 8.704 10.752 9.728 11.776 19.968 3.072 30.208-5.632 6.656-12.288 13.312-19.456 19.456-25.088 23.04-20.48 50.176 12.288 68.096zM890.368 801.28c5.632 3.072 13.312 2.56 17.92-1.024 4.096-3.072 3.072-6.656-2.56-9.728-26.112-15.872-28.672-33.28-7.68-51.712 7.168-6.144 14.336-12.8 19.456-19.968 16.896-22.016 6.656-35.328-16.896-53.76-4.096-3.072-12.288-2.56-16.896 0-4.608 2.56-4.608 5.632-1.024 9.216 3.072 3.072 6.656 6.144 9.728 8.704 10.24 9.728 11.776 19.456 3.072 29.696-5.632 6.656-12.8 13.312-19.456 19.968-9.728 9.216-16.384 18.944-16.384 31.232 1.024 14.336 11.776 27.136 30.72 37.376zM696.32 798.208c2.048 1.536 4.608 3.072 7.168 4.096 5.12 2.048 12.288 1.536 16.384-1.536 3.584-3.072 2.56-6.656-2.048-9.728-1.536-1.024-2.56-1.536-4.096-2.56-20.992-13.824-23.552-30.72-6.656-47.104 5.632-5.632 12.288-11.264 17.408-16.896 7.168-7.68 12.8-15.872 12.288-25.6 0-13.824-12.8-24.064-25.6-34.304-3.584-3.072-11.776-2.56-16.384 0-4.608 2.56-4.608 5.632-1.024 9.216 3.072 3.072 6.656 6.144 9.728 8.704 10.752 9.728 11.776 19.968 2.56 30.208-5.632 6.656-12.288 13.312-19.456 19.456-23.04 22.528-19.456 47.104 9.728 66.048z" p-id="8826"></path><path d="M589.312 516.096h-64V454.144h-18.944v61.952H445.952v19.456h60.416v61.952h18.944v-61.952h64z" p-id="8827"></path></svg>