<?xml version="1.0" standalone="no"?><!DOCTYPE svg PUBLIC "-//W3C//DTD SVG 1.1//EN" "http://www.w3.org/Graphics/SVG/1.1/DTD/svg11.dtd"><svg t="1548643503252" class="icon" style="" viewBox="0 0 1024 1024" version="1.1" xmlns="http://www.w3.org/2000/svg" p-id="17586" xmlns:xlink="http://www.w3.org/1999/xlink" width="16" height="16"><defs><style type="text/css"></style></defs><path d="M742.113475 23.019227H281.887548c-47.580573 0-86.289099 38.721829-86.289099 86.304449V914.69065c0 47.583643 38.708526 86.290123 86.289099 86.290123h460.22695c47.57955 0 86.287053-38.70648 86.287053-86.290123V109.322653c0-47.58262-38.708526-86.303426-86.288076-86.303426zM281.887548 80.560643h460.22695c15.840748 0 28.76201 12.905912 28.76201 28.76201v86.276819H368.178694v-57.513786h-57.527089v57.513786h-57.526066v-86.276819c0-15.856098 12.892609-28.76201 28.762009-28.76201z m86.291146 604.025742V253.139865h402.697814V770.875485h-517.750969V253.139865h57.526066v431.44652h57.527089z m373.934781 258.868322H281.887548c-15.869401 0-28.760987-12.921262-28.760986-28.764057v-86.288076h517.749946v86.288076c0 15.842795-12.921262 28.764056-28.763033 28.764057z" p-id="17587"></path></svg>