<?xml version="1.0" standalone="no"?><!DOCTYPE svg PUBLIC "-//W3C//DTD SVG 1.1//EN" "http://www.w3.org/Graphics/SVG/1.1/DTD/svg11.dtd"><svg t="1548647732204" class="icon" style="" viewBox="0 0 1024 1024" version="1.1" xmlns="http://www.w3.org/2000/svg" p-id="28181" xmlns:xlink="http://www.w3.org/1999/xlink" width="16" height="16"><defs><style type="text/css"></style></defs><path d="M888.65931118 987.03940262H257.97395241c-25.30625034-30.17070314-30.95029998-174.04871974-7.44559125-325.07450484C271.9074277 524.56308461 317.49196373 400.86115896 354.32865998 318.39612858c0 0 32.11823629 0 35.91402704 0.06715675-37.66593087 96.06272318-87.15721251 200.21048383-105.99017729 344.47391943-17.1365384 131.26723061-23.95728449 273.51889678 8.16095178 295.41769326h567.96428307c32.11823629-24.81863661 24.96462815-135.77254226 2.00301058-286.65817416-23.67113974-155.56613599-96.74888541-329.35790931-145.99198078-432.13626465-37.19291694-77.62101705-98.59130465-170.51863428-156.04207039-170.51863427-53.02428761 0-104.82224227 94.82763139-138.86173259 170.51863427-2.46142471 5.47469943-7.00761529 12.34508202-11.67935795 23.35871719h-29.19839615c4.94328889-10.00337102 9.66174885-17.19785551 13.46046008-24.55293133 53.26079457-119.33968508 104.89231822-191.72542884 166.10383674-191.72543013 56.48137795 0 118.09583316 60.73266364 189.53554906 204.58440372 29.40862529 59.21434759 112.08972318 235.75369167 145.75255463 417.18376507 27.72095775 149.40235382 25.80554209 286.99979633-6.80030663 318.63041889z" fill="#000000" p-id="28182"></path><path d="M147.02004675 233.72078025h785.43685997c9.73182608 12.65166493 0 32.11823629 0 32.11823499l-785.43685997-2.91983884v-29.19839615z" fill="#000000" p-id="28183"></path><path d="M199.78738794 481.24434397A1481.87116768 1481.87116768 0 0 0 182.05812189 703.81495887c-10.09096596 49.27813334-25.92233663 65.50368186-60.0611012 65.90370065-34.47746627-0.40877765-53.74256864-24.23466909-62.5721624-69.17100133-0.01459981-0.07591561-17.51903822-106.95664591 0-221.56034946 17.40808334-113.87374578 62.16046557-233.58717054 90.5150286-245.26652848 34.41322997 0.12263291 110.95390565 0 110.95390565 0s-41.4325246 127.49479721-61.1064046 247.52356372z m-32.49489515-216.80393106C132.09674678 274.68904975 108.3993279 376.27902932 88.62325445 487.74682654c-19.54248698 110.14511051-5.83967898 192.70941515-5.83967896 192.70941644 0 21.02284585 14.59919807 64.2014333 33.8701388 64.2014333h7.11272921c19.27094203 0 24.71352269-40.84271613 29.09328223-67.12127344s0.14307237-77.26479636 17.98913167-188.32965558A2253.87968375 2253.87968375 0 0 1 220.01603715 265.83901524s-36.88341355-0.58396751-52.72354436-1.39860233zM120.72689094 769.75661797c0.43797596 0 0.83799346-0.03503797 1.27012975-0.03795845 0.29198439 0 0.58396751 0.03795845 0.87595191 0.03795845h-2.14608166z" fill="#000000" p-id="28184"></path><path d="M925.42301231 252.95084334s38.17982242-21.63017201 42.07488871-3.1388281c-32.11823629 69.10384457-127.68458688 218.78942266-127.68458688 218.78942394l-27.47569064-17.30297071z" fill="#000000" p-id="28185"></path><path d="M354.32865998 318.39612858l2.91984013 29.19839615h-143.07214192v-29.19839615h140.15230179z" fill="#000000" p-id="28186"></path><path d="M819.19924722 872.77147899a13.12175968 13.12175968 0 0 1-17.28545042-8.22810726S789.82858038 680.25185351 757.26652848 566.95915605a1588.00441734 1588.00441734 0 0 0-53.47102241-152.43606673l27.02311489-9.15077775a1636.90005216 1636.90005216 0 0 1 54.65063806 155.88731739c32.18247258 112.00504742 43.62824402 294.07748755 43.62824402 294.07748757a14.68095334 14.68095334 0 0 1-9.89825582 17.43436246z m-132.56071901-499.43856764c-14.41524807-33.53143841-24.55585181-54.64771886-24.5558518-54.64771885a14.68095334 14.68095334 0 0 1 9.90993643-17.43436247 13.11883919 13.11883919 0 0 1 17.28252995 8.22810857s10.07052649 21.12795977 24.43613808 54.68859649z" fill="#000000" p-id="28187"></path></svg>