<?xml version="1.0" standalone="no"?><!DOCTYPE svg PUBLIC "-//W3C//DTD SVG 1.1//EN" "http://www.w3.org/Graphics/SVG/1.1/DTD/svg11.dtd"><svg t="1548643327462" class="icon" style="" viewBox="0 0 1024 1024" version="1.1" xmlns="http://www.w3.org/2000/svg" p-id="12865" xmlns:xlink="http://www.w3.org/1999/xlink" width="16" height="16"><defs><style type="text/css"></style></defs><path d="M930.909091 500.363636h-139.636364v93.090909a93.090909 93.090909 0 0 1-93.090909 93.09091h-139.636363v209.454545h93.090909a46.545455 46.545455 0 1 1 0 93.090909H372.363636a46.545455 46.545455 0 1 1 0-93.090909h93.090909v-209.454545h-139.636363a93.090909 93.090909 0 0 1-93.090909-93.09091v-93.090909H93.090909a93.090909 93.090909 0 0 1-93.090909-93.090909v-279.272727a93.090909 93.090909 0 0 1 93.090909-93.090909h837.818182a93.090909 93.090909 0 0 1 93.090909 93.090909v279.272727a93.090909 93.090909 0 0 1-93.090909 93.090909z m-558.545455 93.090909h279.272728a46.545455 46.545455 0 1 0 0-93.090909H372.363636a46.545455 46.545455 0 1 0 0 93.090909z m558.545455-418.90909a46.545455 46.545455 0 0 0-46.545455-46.545455H139.636364a46.545455 46.545455 0 0 0-46.545455 46.545455v186.181818a46.545455 46.545455 0 0 0 46.545455 46.545454h744.727272a46.545455 46.545455 0 0 0 46.545455-46.545454v-186.181818z m-395.636364 46.545454H162.909091a23.272727 23.272727 0 0 1 0-46.545454h372.363636a23.272727 23.272727 0 0 1 0 46.545454z" p-id="12866"></path></svg>