<?xml version="1.0" standalone="no"?><!DOCTYPE svg PUBLIC "-//W3C//DTD SVG 1.1//EN" "http://www.w3.org/Graphics/SVG/1.1/DTD/svg11.dtd"><svg t="1548647704495" class="icon" style="" viewBox="0 0 1024 1024" version="1.1" xmlns="http://www.w3.org/2000/svg" p-id="27644" xmlns:xlink="http://www.w3.org/1999/xlink" width="16" height="16"><defs><style type="text/css"></style></defs><path d="M954.181818 93.090909H69.818182C30.254545 93.090909 0 123.345455 0 162.909091v605.090909c0 39.563636 30.254545 69.818182 69.818182 69.818182h23.272727v69.818182c0 13.963636 9.309091 23.272727 23.272727 23.272727h139.636364c13.963636 0 23.272727-9.309091 23.272727-23.272727v-69.818182h465.454546v69.818182c0 13.963636 9.309091 23.272727 23.272727 23.272727h139.636364c13.963636 0 23.272727-9.309091 23.272727-23.272727v-69.818182h23.272727c39.563636 0 69.818182-30.254545 69.818182-69.818182V162.909091c0-39.563636-30.254545-69.818182-69.818182-69.818182z m23.272727 69.818182v488.727273h-186.181818V139.636364h162.909091c13.963636 0 23.272727 9.309091 23.272727 23.272727zM69.818182 139.636364h674.909091v512H46.545455V162.909091c0-13.963636 9.309091-23.272727 23.272727-23.272727z m162.909091 744.727272H139.636364v-46.545454h93.090909v46.545454z m651.636363 0h-93.090909v-46.545454h93.090909v46.545454z m69.818182-93.090909H69.818182c-13.963636 0-23.272727-9.309091-23.272727-23.272727v-69.818182h930.90909v69.818182c0 13.963636-9.309091 23.272727-23.272727 23.272727z" fill="#1B1B28" p-id="27645"></path><path d="M884.363636 465.454545c-39.563636 0-69.818182 30.254545-69.818181 69.818182s30.254545 69.818182 69.818181 69.818182 69.818182-30.254545 69.818182-69.818182-30.254545-69.818182-69.818182-69.818182z m0 93.09091c-13.963636 0-23.272727-9.309091-23.272727-23.272728s9.309091-23.272727 23.272727-23.272727 23.272727 9.309091 23.272728 23.272727-9.309091 23.272727-23.272728 23.272728zM884.363636 418.909091c39.563636 0 69.818182-30.254545 69.818182-69.818182s-30.254545-69.818182-69.818182-69.818182-69.818182 30.254545-69.818181 69.818182 30.254545 69.818182 69.818181 69.818182z m0-93.090909c13.963636 0 23.272727 9.309091 23.272728 23.272727s-9.309091 23.272727-23.272728 23.272727-23.272727-9.309091-23.272727-23.272727 9.309091-23.272727 23.272727-23.272727zM837.818182 232.727273h93.090909c13.963636 0 23.272727-9.309091 23.272727-23.272728s-9.309091-23.272727-23.272727-23.272727h-93.090909c-13.963636 0-23.272727 9.309091-23.272727 23.272727s9.309091 23.272727 23.272727 23.272728zM256 465.454545c13.963636 0 23.272727-9.309091 23.272727-23.272727v-93.090909c0-13.963636-9.309091-23.272727-23.272727-23.272727s-23.272727 9.309091-23.272727 23.272727v93.090909c0 13.963636 9.309091 23.272727 23.272727 23.272727zM395.636364 465.454545c13.963636 0 23.272727-9.309091 23.272727-23.272727v-93.090909c0-13.963636-9.309091-23.272727-23.272727-23.272727s-23.272727 9.309091-23.272728 23.272727v93.090909c0 13.963636 9.309091 23.272727 23.272728 23.272727zM535.272727 465.454545c13.963636 0 23.272727-9.309091 23.272728-23.272727v-93.090909c0-13.963636-9.309091-23.272727-23.272728-23.272727s-23.272727 9.309091-23.272727 23.272727v93.090909c0 13.963636 9.309091 23.272727 23.272727 23.272727z" fill="#1B1B28" p-id="27646"></path></svg>