<?xml version="1.0" standalone="no"?><!DOCTYPE svg PUBLIC "-//W3C//DTD SVG 1.1//EN" "http://www.w3.org/Graphics/SVG/1.1/DTD/svg11.dtd"><svg t="1548646047637" class="icon" style="" viewBox="0 0 1233 1024" version="1.1" xmlns="http://www.w3.org/2000/svg" p-id="22521" xmlns:xlink="http://www.w3.org/1999/xlink" width="19.265625" height="16"><defs><style type="text/css"></style></defs><path d="M199.415509 598.247072h-1.087721a11.783644 11.783644 0 0 1-10.514636-12.690078 623.53604 623.53604 0 0 1 31.906482-147.930051c1.359651-3.353806 2.447372-6.798256 3.535093-10.242705a156.903748 156.903748 0 0 1-41.061466 20.032194 11.602357 11.602357 0 0 1-6.979543-22.207636A133.155174 133.155174 0 0 0 231.231347 389.767221a11.602357 11.602357 0 0 1 20.032195 8.611124 154.093803 154.093803 0 0 1-9.970776 47.043932 598.246528 598.246528 0 0 0-30.637473 142.128872A11.602357 11.602357 0 0 1 199.415509 598.247072zM1074.940239 548.393194a18.5819 18.5819 0 0 1-10.061419-2.991232l-0.725148-0.543861a18.128683 18.128683 0 1 1 20.122838-30.54683h0.725148a18.128683 18.128683 0 0 1-10.061419 33.628706zM671.486406 961.636516a14.231016 14.231016 0 0 1-14.049729-12.508791 300.210985 300.210985 0 0 1 15.68131-140.044074 14.231016 14.231016 0 0 1 27.193024 9.698845 271.114449 271.114449 0 0 0-16.315814 93.181429 261.687534 261.687534 0 0 0 2.084798 33.628707 14.231016 14.231016 0 0 1-12.418147 15.862597zM922.115444 811.71231a14.231016 14.231016 0 0 1-3.807024-27.918171l172.222486-47.769079a14.231016 14.231016 0 0 1 7.614046 27.193024l-172.222485 47.769079a13.687155 13.687155 0 0 1-3.807023 0.725147zM654.717374 732.671254a13.596512 13.596512 0 0 1-7.523403-2.175442L269.482868 492.466208a14.231016 14.231016 0 0 1 15.228093-24.111147l377.62046 238.029603a14.231016 14.231016 0 0 1-7.614047 26.28659zM1038.048369 284.802149a18.128683 18.128683 0 0 0-9.064341-11.783644c-2.356729-1.269008-4.622814-2.628659-6.888899-3.98831a268.848364 268.848364 0 0 1-131.43295-212.105588 18.128683 18.128683 0 0 0-9.064341-14.412302A304.561869 304.561869 0 0 0 726.235028 0.000544a294.047233 294.047233 0 0 0-32.359699 1.722225 305.830877 305.830877 0 0 0-212.740091 121.462174 18.128683 18.128683 0 0 0-3.625737 11.330426 303.746078 303.746078 0 0 0 50.035165 160.620129 303.292861 303.292861 0 0 0 19.850907 88.014754 27.193024 27.193024 0 0 0 3.98831 45.321707l169.503183 104.511855 2.538016 1.540938a27.193024 27.193024 0 0 0 28.371388-46.953288l-18.128683-11.14914a269.936085 269.936085 0 0 1 101.339337-47.678435c4.985388-1.178364 10.152062-2.175442 15.318736-3.081876h1.269008a305.830877 305.830877 0 0 0 176.029509-115.207778c2.538016-3.353806 4.985388-6.888899 7.43276-10.423993a18.128683 18.128683 0 0 0 2.991232-15.228093zM610.030172 63.450933a307.643745 307.643745 0 0 0-78.85977 158.53533 266.038418 266.038418 0 0 1-16.859675-81.579072A270.389302 270.389302 0 0 1 610.030172 63.450933z m233.950649 326.316288c-5.710535 0.906434-11.42107 2.084799-16.950318 3.353806A305.015086 305.015086 0 0 0 715.267175 444.153269l-3.081876-1.903512a271.93024 271.93024 0 0 1 169.321896-123.275042 14.231016 14.231016 0 0 0-6.61697-27.736884 300.120342 300.120342 0 0 0-186.997361 135.96512l-19.760264-12.146218a271.93024 271.93024 0 0 1 61.003017-119.105445 300.936132 300.936132 0 0 0 75.868537-199.415509 14.231016 14.231016 0 0 0-28.462032 0 271.93024 271.93024 0 0 1-68.798351 181.286827 300.120342 300.120342 0 0 0-64.900684 122.368608l-52.573179-32.450342-0.906435-0.543861-2.084798-1.269008-0.906434-0.54386a45.321707 45.321707 0 0 0-8.067264-3.44445 267.307426 267.307426 0 0 1-14.502946-73.149234 3.98831 3.98831 0 0 0 0-0.906434v-1.178365-13.233938a266.491635 266.491635 0 0 1 84.479661-196.877494 18.128683 18.128683 0 0 0 0.815791-25.833373 16.859675 16.859675 0 0 0-2.356729-2.084798 268.576434 268.576434 0 0 1 208.479851 20.757341 305.740233 305.740233 0 0 0 138.593779 225.067596A268.848364 268.848364 0 0 1 843.980821 389.767221z" p-id="22522"></path><path d="M1225.770878 748.352564A158.988547 158.988547 0 0 1 1169.300032 651.998616c-0.453217-2.447372-0.815791-4.985388-1.087721-7.523403a3.897667 3.897667 0 0 0 0-0.997078 196.877494 196.877494 0 0 0-83.482584-128.985577L889.755745 382.697035a18.128683 18.128683 0 0 0-16.406458-1.994155 279.363 279.363 0 0 1-29.368466 9.064341c-5.710535 0.906434-11.42107 2.084799-16.950318 3.353806A305.015086 305.015086 0 0 0 715.267175 444.153269l-124.997267-77.046901-0.906435-0.543861-2.084798-1.269007-0.906434-0.543861a47.950366 47.950366 0 0 0-8.067264-3.44445 268.032573 268.032573 0 0 1-14.502946-73.149234 18.128683 18.128683 0 0 0-3.17252-9.064342A264.134906 264.134906 0 0 1 540.959891 244.73776a18.128683 18.128683 0 0 0-21.391846-9.608202l-209.114354 57.467924a304.289939 304.289939 0 0 0-134.605469 62.272025l-1.359651 1.269008a156.087958 156.087958 0 0 1-14.86552 12.871365 158.082113 158.082113 0 0 1-96.988452 32.903559 163.158144 163.158144 0 0 1-39.792459-4.985388 18.128683 18.128683 0 0 0-9.064341 35.441574 158.172756 158.172756 0 0 1 79.766204 50.579025 159.441764 159.441764 0 0 1 37.97959 103.242848v9.064341q0 4.441527-1.540938 12.055574a6.888899 6.888899 0 0 0 0 1.359651v11.330427a195.880416 195.880416 0 0 0 102.698987 172.222485l407.170213 223.707944a59.734009 59.734009 0 0 0 30.002969 8.067264 55.111195 55.111195 0 0 0 12.055574-1.269008l396.383647-88.286684h0.815791a86.745747 86.745747 0 0 0 65.897761-64.900684l23.204714-76.231111 50.850955-12.780721a18.128683 18.128683 0 0 0 7.160829-31.997125z m-77.046901 11.783644a18.128683 18.128683 0 0 0-9.789489 6.526326L1052.460672 788.59824a185.003207 185.003207 0 0 0-131.161019 53.751544 105.599577 105.599577 0 0 1-181.286827-74.236956 14.231016 14.231016 0 0 0-28.462031 0 792.223432 792.223432 0 0 1-19.035117 173.12892 14.231016 14.231016 0 0 0 10.605279 17.131605 13.324582 13.324582 0 0 0 3.263163 0 14.321659 14.321659 0 0 0 13.868442-11.058496 790.047991 790.047991 0 0 0 16.134528-101.883197 133.970965 133.970965 0 0 0 204.582184 16.678388 156.903748 156.903748 0 0 1 112.760406-45.321707 14.321659 14.321659 0 0 0 3.44445 0l70.067358-17.403535-18.128683 60.459157a5.982465 5.982465 0 0 0 0 1.359651 49.944521 49.944521 0 0 1-37.97959 37.798303l-395.023995 88.014755h-2.084799a22.932784 22.932784 0 0 1-16.406457-2.90059l-407.89536-223.979874a159.351121 159.351121 0 0 1-83.573227-140.22536v-8.520481c0.54386-4.622814 0.997078-9.064341 1.269007-13.777799s0-7.523403 0-11.330427a196.152346 196.152346 0 0 0-46.681357-126.900778 190.351168 190.351168 0 0 0-23.929862-23.657931 193.886261 193.886261 0 0 0 84.570305-37.43573A178.930098 178.930098 0 0 0 199.415509 382.787678a268.576434 268.576434 0 0 1 118.289655-54.386048h1.631581l195.608486-53.842187c3.897667 7.16083 8.067264 14.140372 12.508791 20.847985a305.377659 305.377659 0 0 0 20.122838 88.921188 18.128683 18.128683 0 0 0 17.312892 11.693001 7.70469 7.70469 0 0 1 3.807023 0.997077h0.815791l0.815791 0.543861 135.96512 84.026444a18.128683 18.128683 0 0 0 21.482489-1.178365 270.117372 270.117372 0 0 1 107.231158-52.119962c4.985388-1.178364 10.152062-2.175442 15.318736-3.081876a2.900589 2.900589 0 0 0 1.269008 0c8.339194-1.903512 16.678388-4.169597 24.926939-6.8889l187.178648 126.900779a159.804338 159.804338 0 0 1 67.801274 104.330569q0.54386 4.622814 1.359651 9.064341A195.517843 195.517843 0 0 0 1178.364373 752.794092z" p-id="22523"></path><path d="M709.737926 679.282283a194.702052 194.702052 0 0 1-115.842282-37.888946L317.251947 466.542192h-0.634504l-3.17252-1.994155a6.435682 6.435682 0 0 1-1.269008-0.906434 53.570257 53.570257 0 0 1 15.409381-94.631723l213.102664-80.491352a18.128683 18.128683 0 0 1 24.655009 15.046807 267.126139 267.126139 0 0 0 13.143295 57.921141 45.321707 45.321707 0 0 1 8.067264 3.44445l0.906434 0.54386 2.084798 1.269008 0.906434 0.543861L715.176531 444.153269a302.930287 302.930287 0 0 1 93.99722-46.590714 18.128683 18.128683 0 0 1 15.046806 2.084798L969.884523 492.647495h0.54386l3.44445 2.175442 1.269008 0.815791a53.660901 53.660901 0 0 1-10.967853 92.546925l-178.476881 75.234033a13.052652 13.052652 0 0 1-1.812869 0.815791 194.883339 194.883339 0 0 1-74.146312 15.046806z m-96.716522-69.160924l1.903512 1.269008A159.623051 159.623051 0 0 0 770.469013 630.516127h0.725148l178.839454-75.505963a16.950318 16.950318 0 0 0 3.897667-28.915249l-3.535093-2.356729h-0.543861L811.711766 435.088928a269.210938 269.210938 0 0 0-83.9358 45.321706 18.128683 18.128683 0 0 1-21.029272 1.269008l-135.96512-84.026444-0.815791-0.54386h-0.815791a7.70469 7.70469 0 0 0-3.807023-0.997078 18.128683 18.128683 0 0 1-17.222249-11.693 303.202218 303.202218 0 0 1-15.500023-53.660901l-191.438889 72.514731-2.266086 0.81579a16.859675 16.859675 0 0 0-5.257318 29.912327L335.380629 435.088928h0.634504z" p-id="22524"></path></svg>