<?xml version="1.0" standalone="no"?><!DOCTYPE svg PUBLIC "-//W3C//DTD SVG 1.1//EN" "http://www.w3.org/Graphics/SVG/1.1/DTD/svg11.dtd"><svg t="1548646497237" class="icon" style="" viewBox="0 0 1024 1024" version="1.1" xmlns="http://www.w3.org/2000/svg" p-id="24890" xmlns:xlink="http://www.w3.org/1999/xlink" width="16" height="16"><defs><style type="text/css"></style></defs><path d="M668.7 180.6H430.4c-14.5 0-25.9-11.4-25.9-25.9v-30.6c0-14.5 11.4-25.9 25.9-25.9h238.3c14.5 0 25.9 11.4 25.9 25.9v30.3c0.4 6.6-1.9 13-6.4 17.9-4.9 5.3-12 8.3-19.5 8.3z m-238.3-61.9c-3.2 0-5.4 2.2-5.4 5.4v30.6c0 3.2 2.2 5.4 5.4 5.4h238.3c1.7 0 3.4-0.7 4.5-1.8 0.8-0.8 1.1-1.8 1-2.9V124c0-3.2-2.2-5.4-5.4-5.4H430.4z" fill="#231815" p-id="24891"></path><path d="M532.5 260.3h-49.7V167h49.7v93.3z m-29.2-20.4h8.9v-52.4h-8.9v52.4z" fill="#231815" p-id="24892"></path><path d="M585 320.9H437.2v-49c0-17.9 14.1-32 32-32H553c17.9 0 32 14.1 32 32v49z m-127.4-20.4h106.9v-28.6c0-6.6-5-11.6-11.6-11.6h-83.8c-6.6 0-11.6 5-11.6 11.6v28.6z" fill="#231815" p-id="24893"></path><path d="M634 433.3H388.2V326.4c0-14.3 11.6-25.9 25.9-25.9h194.1c14.3 0 25.9 11.6 25.9 25.9v106.9z m-225.4-20.5h205v-86.5c0-3.1-2.9-5.4-5.4-5.4H414c-3.1 0-5.4 2.9-5.4 5.4v86.5z" fill="#231815" p-id="24894"></path><path d="M651.7 929h-286c-52.6 0-95.3-42.8-95.3-95.3V529.3c0-64.2 52.2-116.4 116.4-116.4h264.9c64.2 0 116.4 52.2 116.4 116.4v282.6c0.1 64.6-52.2 117.1-116.4 117.1zM386.8 433.3c-52.9 0-96 43.1-96 96v304.4c0 41.3 33.6 74.9 74.9 74.9h286c52.9 0 96-43.4 96-96.7V529.3c0-52.9-43.1-96-96-96H386.8z" fill="#231815" p-id="24895"></path><path d="M768.2 773.8h-271V636.2c0-37.5 30.6-68.1 68.1-68.1h202.9v205.7z m-250.6-20.5h230.2V588.5H565.2c-26.3 0-47.7 21.4-47.7 47.7v117.1z" fill="#231815" p-id="24896"></path></svg>