<?xml version="1.0" standalone="no"?><!DOCTYPE svg PUBLIC "-//W3C//DTD SVG 1.1//EN" "http://www.w3.org/Graphics/SVG/1.1/DTD/svg11.dtd"><svg t="1548645979346" class="icon" style="" viewBox="0 0 1024 1024" version="1.1" xmlns="http://www.w3.org/2000/svg" p-id="19546" xmlns:xlink="http://www.w3.org/1999/xlink" width="16" height="16"><defs><style type="text/css"></style></defs><path d="M839.91552 581.77024c-4.29056-28.86144-14.9504-57.6768-34.58048-79.7696-23.68-26.65472-55.33696-38.51264-86.30784-54.27712-31.76448-16.16384-58.03008-22.9888-89.86624-39.10656-33.87904-17.14688-65.32608-56.6016-85.08416-87.19872-18.52928-28.68736-33.62816-51.3792-57.45664-75.41248-24.41216-24.6272-48.2048-38.72768-83.15904-41.82528-29.3632-2.60096-56.07936 4.17792-78.32576 23.7312-5.14048 4.51584-9.8304 9.85088-14.39232 15.4112-7.61344-0.60416-25.87648 1.89952-32.94208 8.87296-22.24128 21.95968-43.48928 32.50176-67.14368 53.48864-24.33536 21.59104-42.09664 51.34336-49.87392 82.7904-14.12608 57.13408-0.36352 129.57696 45.73696 168.61184 41.97376 35.54304 98.176 44.14464 148.95616 60.416 29.7728 9.53856 53.7088 34.16576 75.00288 55.84384 24.9856 25.43104 43.66336 49.01376 58.97728 81.37216 28.84096 60.93824 70.27712 107.3408 140.6208 114.82112 66.44224 7.0656 128.49664-48.19968 166.4768-96.03584 40.84224-51.43552 52.87936-127.67232 43.36128-191.73376z" fill="#FFFFFF" p-id="19547"></path><path d="M170.35264 474.02496c0.01536 2.7136-1.31584 6.4512 0.3584 7.68-0.3328 3.50208 5.44256 5.99552 5.4784 9.472-0.29184 11.08992 2.06336 21.95968 9.21088 32.37376 8.0128 25.05216 28.53888 43.9552 54.71744 60.99968 97.41824 63.43168 123.4432 58.41408 184.22784 133.56544 1.02912 1.27488 2.11968 2.26304 3.36384 2.8672 3.7632 7.47008 8.73472 14.39232 14.24384 21.01248 2.05824 5.30432 4.38272 10.35776 7.48544 14.70976 3.49696 4.90496 7.15264 9.70752 10.81344 14.50496 1.12128 16.32256 5.90336 32.1536 11.93472 48.75264 1.72032 4.736 7.13728 6.31808 10.99264 4.75648 17.65376 19.24608 38.73792 40.35072 64.69632 45.26592 2.39616 0.45568 11.5968 5.79584 13.22496 4.69504 13.27104 5.53472 22.43072 3.77856 36.80256 6.22592 0.65024 0.33792-0.04096 0.6144 0.8192 0.74752 0.68096 0.10752 0.31744 0.16896 0.31744 0.26624v-1.26976s2.41664 5.12 2.42688 5.12c13.58336 5.12 27.648-7.16288 41.15968-7.8336 0.97792-0.04096 2.24256 0.56832 3.22048 0.52224 3.3024-0.2048 6.7328-0.49152 10.04032-0.8192 2.39104-0.24064 4.83328-0.53248 7.2192-0.83968a284.53888 284.53888 0 0 0 10.5216-1.536c2.26304-0.40448 3.77856-1.51552 4.64896-2.944 15.52896-1.2544 29.98784-6.1696 42.2912-19.51232 4.38784-4.77696 13.9008-14.10048 6.9376-13.96736-16.62464 0.32256-40.92928 15.17056-57.1392 17.06496-9.84576 1.152-13.59872 0.46592-19.86048 1.6384-12.09856-1.08032-24.04864-3.30752-34.41152-5.07904-32.32256-5.54496-100.37248-53.53472-118.5536-127.9744-2.24768-5.86752-25.86112-42.13248-28.16-55.04-8.46848-42.30656-32.7424-49.47968-54.54336-64.04096-37.54496-25.07264-77.16864-45.52704-116.9408-66.74944a7.74144 7.74144 0 0 0-5.2736-0.83968c-8.09472-3.61472-16.2304-7.2704-23.90528-11.63264-1.81248-1.53088-3.58912-2.99008-5.4272-4.56704-6.69696-5.72416-13.94176-10.64448-21.32992-15.33952-8.05888-7.18848-15.53408-15.79008-15.77984-24.99072-0.128-4.8384-3.87584-7.296-7.63392-7.40352-0.20992-13.29664-3.34336-26.5472-5.48352-39.77216-4.57216-28.25728 25.92256-121.99936 25.92256-121.99936l-22.82496 33.70496c-0.00512-0.00512-46.27456 47.73376-45.80864 128.2048z" fill="#F5F5F5" p-id="19548"></path><path d="M338.86208 235.39712c-59.07456 40.064-107.72992 93.60384-123.14624 164.6848-14.47424 66.71872 37.23264 108.81536 91.26912 135.7056 28.99968 14.43328 59.14624 25.75872 86.44608 43.47904 25.2928 16.40448 47.94368 40.11008 67.83488 62.61248 35.50208 40.15616 48.54784 93.66528 87.96672 131.09248 92.6208 87.95136 219.89888-0.07168 268.1088-90.16832 29.63968-55.3984 18.29376-129.11104-21.18144-176.78848-37.5552-45.3632-96.18432-57.12896-148.27008-77.57312-67.79904-26.60864-103.11168-88.80128-140.1088-147.42528-38.08768-60.3648-105.78944-85.21728-168.91904-45.6192-8.41728 5.27872-16.11776-8.0128-7.75168-13.26592 70.71232-44.34944 145.40288-16.11776 189.29152 50.1248 23.57248 35.58912 44.42112 75.83232 75.35104 105.71264 41.10848 39.72096 100.2496 47.01696 149.89824 71.07072 94.46912 45.76256 131.34336 161.51552 78.67904 252.79488-45.05088 78.06976-136.7552 141.824-228.80256 115.45088-64.14336-18.38592-91.02336-76.80512-120.85248-129.98144-19.08224-34.02752-48.47104-61.13792-77.68576-86.4-33.85344-29.26592-80.47616-41.47712-119.04-63.06304-52.13184-29.184-86.56384-74.07104-78.23872-135.20384 10.54208-77.3888 69.36064-138.42432 131.38944-180.49536 8.22784-5.58592 15.90272 7.7312 7.76192 13.25568z" fill="#666666" p-id="19549"></path><path d="M848.26112 632.32c-4.5056 96.72192-74.7008 212.0704-167.2448 247.40864-36.12672 13.78816-82.88256 14.28992-120.20736 6.4-47.86176-10.12224-83.03104-44.89216-105.90208-86.53824-14.81728-26.9824-24.12544-55.51104-42.12736-80.89088-23.58784-33.26464-56.09984-57.83552-90.53696-78.82752-39.0144-23.7824-82.90816-44.49792-117.26848-75.136-67.36896-60.06784-68.5568-181.0944-13.63968-248.6784 29.2352-35.97312 67.1488-63.60576 107.74528-85.49376 25.06752-13.5168 55.90016-29.3376 85.05344-30.2336 9.91232-0.3072 9.8816 15.05792 0 15.36-33.06496 1.01376-68.49536 22.46656-96.03584 38.71232-42.81856 25.25696-82.83648 59.37152-105.9328 104.05376-25.3696 49.07008-16.5888 121.23136 10.69056 167.76704 21.74976 37.10976 64.27648 56.44288 99.53792 78.09024 56.63744 34.76992 109.53216 66.39104 145.40288 124.35968 16.33792 26.39872 25.05216 56.43776 41.93792 82.61632a140.39552 140.39552 0 0 0 69.80096 55.66464c40.69376 14.87872 96.80384 11.49952 136.38656-5.66784 54.88128-23.79776 94.37184-80.512 120.09984-132.17792 14.92992-29.97248 25.30816-63.21152 26.87488-96.768 0.46592-9.8816 15.82592-9.9328 15.36512-0.02048z" fill="#666666" p-id="19550"></path><path d="M395.44832 384.15872c0.3072-3.12832-0.27136-6.72256-1.81248-10.77248-1.52576-4.0448-4.03968-8.75008-7.56224-14.09024a302.06976 302.06976 0 0 1-6.84032-10.71616c-1.59232-2.65728-2.61632-5.00736-3.04128-7.05024-0.43008-2.048 0-3.69152 1.31072-4.92032 1.43872-1.34656 3.49696-1.60768 6.18496-0.79872 2.67264 0.82432 5.30944 2.52416 7.90528 5.11488 2.52928 2.52416 4.16256 4.86912 4.91008 7.01952 0.74752 2.16064 1.0496 4.352 0.93696 6.58432-0.128 2.70848-0.0256 4.93056 0.26624 6.64576 0.31232 1.72544 1.18784 3.31776 2.67264 4.7872 2.03264 2.03776 4.06528 3.18464 6.08256 3.42528 2.03264 0.24576 3.7376-0.31232 5.18656-1.65888 1.29536-1.23392 2.11968-3.01056 2.44736-5.33504 0.32768-2.31936 0.06656-4.99712-0.7936-8.0384-0.85504-3.04128-2.43712-6.35392-4.74624-9.94304-2.29888-3.58912-5.31456-7.25504-9.02656-10.96704-4.74112-4.72576-9.46176-8.15104-14.13632-10.24512-4.67456-2.0992-8.97536-2.9696-12.93824-2.59584-3.93216 0.37376-7.15776 1.7408-9.64608 4.08064-2.80064 2.63168-4.224 5.79584-4.28032 9.45664-0.04096 3.6608 0.88064 7.58784 2.84672 11.8016 1.94048 4.20352 4.8384 9.27744 8.72448 15.21664 3.49184 5.24288 5.6832 9.28256 6.59456 12.14976 0.9216 2.85184 0.27136 5.31456-1.92 7.3728-1.41824 1.34656-3.61984 1.61792-6.5792 0.82944-2.94912-0.79872-5.85728-2.63168-8.75008-5.504-3.5328-3.53792-5.79072-6.85056-6.74816-9.92768-0.97792-3.08736-1.0752-6.4-0.34816-9.96864a14.3872 14.3872 0 0 0 0.39424-4.84352c-0.16896-1.40288-1.01376-2.8672-2.52928-4.37248-1.72544-1.72032-3.63008-2.68288-5.71904-2.88256-2.0992-0.20992-3.84 0.3328-5.2224 1.61792-2.05824 1.95584-3.24096 4.7616-3.52768 8.45312-0.30208 3.69152 0.70656 8.00768 3.03104 12.98432 2.31936 4.9664 6.0672 10.03008 11.22304 15.17568 5.42208 5.39648 10.65472 9.38496 15.68256 11.96544 5.03296 2.58048 9.75872 3.67616 14.13632 3.3024 4.3776-0.37376 8.28416-2.18112 11.7248-5.41696 2.28352-2.16576 3.59424-4.80768 3.90656-7.936zM411.31008 441.06752c0.14336 1.67936 0.71168 3.01056 1.68448 3.968 1.15712 1.15712 2.51904 1.85344 4.11648 2.11968 1.59744 0.256 2.816-0.01024 3.65056-0.79872 0.47104-0.44544 1.2544-1.74592 2.34496-3.90656 1.06496-2.15552 2.38592-3.95264 3.9168-5.4016 1.65376-1.51552 3.16416-2.8928 4.51072-4.13696l4.8896-4.5824c3.03104-2.85696 4.97664-5.632 5.83168-8.3456 0.85504-2.69824 0.52736-5.632-1.00864-8.8064-1.52064-3.16416-4.35712-6.81984-8.51456-10.96192-3.70688-3.70176-7.25504-6.37952-10.60864-8.03328-3.37408-1.664-6.32832-2.43712-8.85248-2.3296-2.52928 0.10752-4.51584 0.83968-5.94944 2.19136a3.584 3.584 0 0 0-1.1008 3.28192c0.1792 1.32608 0.7936 2.5088 1.86368 3.57376 1.17248 1.16736 2.1248 1.75616 2.8416 1.7664 0.73728 0.01024 2.0992-0.09728 4.1216-0.32256a12.17536 12.17536 0 0 1 5.71392 0.65024c1.79712 0.65536 3.8912 2.19136 6.28224 4.57728 2.79552 2.7904 4.12672 5.0944 4.00896 6.92736-0.11776 1.83808-1.19808 3.82976-3.23072 5.97504-2.48832-1.5104-4.75136-2.944-6.79424-4.30592s-4.46464-3.03104-7.25504-5.00224a469.18144 469.18144 0 0 0-5.25824-3.6864c-3.41504-2.34496-6.7072-3.58912-9.92256-3.7376-3.21024-0.14336-5.92384 0.83456-8.17152 2.93376a10.3424 10.3424 0 0 0-3.11808 5.82656c-0.43008 2.32448-0.13824 4.78208 0.87552 7.39328 1.00352 2.60096 2.70848 5.12 5.13536 7.53152 2.64192 2.64192 5.41696 4.67456 8.32512 6.07744a45.46048 45.46048 0 0 0 10.07104 3.34848c-0.42496 2.45248-0.57344 4.52608-0.39936 6.21568z m10.43968-16.88576c-2.82624 2.66752-5.29408 4.15744-7.38816 4.46976-1.84832 0.32256-3.9168 0.0256-6.20544-0.88064a18.31936 18.31936 0 0 1-6.24128-4.15744c-1.75104-1.74592-2.73408-3.56864-2.94912-5.46816s0.29696-3.43552 1.53088-4.59264a4.61824 4.61824 0 0 1 4.18304-1.2544c1.5872 0.29184 3.01056 0.83456 4.23936 1.62304 1.2544 0.79872 3.44064 2.2784 6.56896 4.4544 3.11808 2.17088 5.59616 3.7376 7.41376 4.70528l-1.152 1.1008zM449.39264 424.01792a3.32288 3.32288 0 0 0-0.9984 3.15392c0.20992 1.28 1.024 2.61632 2.432 4.02432l2.59072 2.5856-21.632 20.37248c-1.60768 1.52576-2.41152 3.12832-2.36544 4.80256 0.0512 1.6896 0.73216 3.19488 2.05824 4.52096 1.41824 1.408 2.99008 2.15552 4.7104 2.24256 1.74592 0.09216 3.41504-0.62976 5.03808-2.1504l21.62688-20.37248 2.32448 2.31424c1.68448 1.67936 3.16928 2.816 4.48512 3.43552s2.6368 0.29696 3.97824-0.96768c1.87392-1.76128 1.00864-4.43904-2.58048-8.02304l-2.304-2.30912 1.94048-1.82784c1.6128-1.52576 3.09248-2.45248 4.44928-2.78016 1.34656-0.33792 2.87232 0.34304 4.5824 2.048 0.62464 0.61952 1.32608 1.42848 2.10944 2.43712 0.77824 1.01376 1.34656 1.70496 1.7152 2.0736a4.27008 4.27008 0 0 0 2.84672 1.26976 3.57376 3.57376 0 0 0 2.81088-0.9728c2.33984-2.19648 0.7424-6.0416-4.76672-11.53024-3.0976-3.0976-5.89312-5.2224-8.3712-6.35392-2.47808-1.14176-4.84352-1.37216-7.10144-0.70144-2.2528 0.67584-4.64896 2.21184-7.20896 4.61824l-2.45248 2.30912-2.24256-2.2528c-3.16928-3.14368-5.72416-3.80416-7.67488-1.96608zM495.58016 497.32096c1.95584 0.7936 3.97824 0.21504 6.03648-1.72032 2.21184-2.08896 3.73248-4.7872 4.55168-8.1152 0.81408-3.31776 0.57344-6.93248-0.7168-10.8288-1.29024-3.89632-3.78368-7.69024-7.46496-11.3664a35.5328 35.5328 0 0 0-8.92928-6.61504c-3.11808-1.57184-6.21056-2.46784-9.28256-2.6624a20.992 20.992 0 0 0-8.9344 1.37216 24.576 24.576 0 0 0-7.96672 5.0944c-5.12 4.82304-7.5008 10.32704-7.12704 16.50176 0.37888 6.17984 3.58912 12.28288 9.66656 18.33984 2.64704 2.64192 5.2736 4.69504 7.92064 6.15936 2.6368 1.47456 5.08928 2.4576 7.34208 2.944 2.25792 0.49152 4.21888 0.60928 5.87264 0.34304 1.65888-0.26624 2.85184-0.74752 3.59424-1.44384a3.02592 3.02592 0 0 0 1.03936-2.72896c-0.14336-1.02912-0.69632-2.0224-1.66912-2.99008-0.896-0.89088-1.77152-1.41312-2.6112-1.55648a148.36224 148.36224 0 0 1-5.15584-0.72704 29.7984 29.7984 0 0 1-3.97824-0.93184 16.25088 16.25088 0 0 1-3.7888-1.68448 18.97984 18.97984 0 0 1-3.44576-2.7648 14.03392 14.03392 0 0 1-3.53792-5.62688 11.008 11.008 0 0 1-0.14848-6.35904c0.56832-2.17088 1.78176-4.1472 3.59936-5.91872l18.46272 18.41664c2.48832 2.47296 4.7104 4.09088 6.67136 4.86912z m-11.4944-30.7712c2.9184 0.1792 5.55008 1.44896 7.90528 3.7888 2.46272 2.4576 3.75808 5.09952 3.88096 7.90528 0.11776 2.80576-1.09056 5.64224-3.65056 8.4992l-17.11616-17.06496c3.07712-2.26816 6.0672-3.31264 8.98048-3.12832zM554.61376 524.88192c0.43008-1.56672-0.27648-3.26656-2.08896-5.07904-1.26464-1.25952-2.69312-1.93024-4.28032-2.00704-1.5872-0.06656-3.08736 0.5632-4.49536 1.89952l-1.12128 1.03424c0.22016-3.46112-0.20992-6.59456-1.28-9.37472-1.08032-2.7904-2.93888-5.51936-5.62176-8.18688a26.112 26.112 0 0 0-7.18848-5.16608 21.06368 21.06368 0 0 0-8.00256-2.04288 19.40992 19.40992 0 0 0-8.2944 1.41312 24.62208 24.62208 0 0 0-7.808 5.09952c-3.29216 3.10272-5.5552 6.46656-6.8096 10.09664a18.64704 18.64704 0 0 0-0.41472 10.96704c0.96768 3.67616 3.02592 7.07072 6.18496 10.21952 2.6368 2.62656 5.3504 4.4544 8.17152 5.47328 2.82624 1.03936 5.8368 1.44896 9.04704 1.24928-2.70848 2.46272-4.72576 4.22912-6.02112 5.26848a12.3904 12.3904 0 0 1-4.352 2.2528c-1.60256 0.45056-3.36896 0.2816-5.30944-0.51712-1.93536-0.77824-4.1216-2.4064-6.56896-4.8384a22.7328 22.7328 0 0 1-2.89792-3.44064 10.8544 10.8544 0 0 1-1.50528-3.17952 11.81696 11.81696 0 0 1-0.384-3.11296c0.01024-1.04448 0.0256-2.08896 0.07168-3.09248a6.8864 6.8864 0 0 0-2.06336-5.12 6.45632 6.45632 0 0 0-3.76832-1.94048 4.16768 4.16768 0 0 0-3.61984 1.13152c-1.31584 1.23904-1.90976 3.13856-1.77664 5.67808 0.1536 2.56 1.08544 5.4784 2.8672 8.77056 1.77152 3.3024 4.28032 6.56896 7.52128 9.79968 3.5584 3.54304 6.8352 6.21056 9.84576 8.0128 3.00032 1.79712 5.87776 2.83136 8.63232 3.09248a15.57504 15.57504 0 0 0 8.05888-1.36192c2.63168-1.17248 5.30944-3.03616 8.0128-5.58592l23.71584-22.35392c1.95072-1.81248 3.11808-3.51232 3.54304-5.05856z m-31.24224-17.152c3.40992-0.05632 6.46144 1.26464 9.15456 3.94752 2.7648 2.7648 4.07552 5.8624 3.90656 9.30304-0.14848 3.4304-1.89952 6.72256-5.22752 9.86112-2.09408 1.9712-4.31104 3.21024-6.66112 3.712-2.34496 0.512-4.5824 0.41984-6.70208-0.29184a14.1312 14.1312 0 0 1-5.5296-3.40992c-2.65728-2.64192-3.968-5.59616-3.94752-8.85248 0.0256-3.26656 1.6896-6.44608 5.00736-9.56928 3.27168-3.08736 6.59968-4.65408 9.99936-4.70016zM560.37376 589.68064c0.04096 1.60256 0.70144 3.04128 1.99168 4.34176 1.28512 1.28 2.72384 1.96096 4.33664 2.05312 1.59744 0.08704 3.17952-0.60416 4.73088-2.0736l23.66976-22.29248c1.62816-1.54112 2.42688-3.11808 2.3808-4.73088-0.0512-1.6128-0.768-3.11296-2.18112-4.52096-1.39776-1.40288-2.95936-2.16064-4.64896-2.26304-1.68448-0.09728-3.33824 0.60416-4.96128 2.12992l-9.9328 9.35424c-3.9168 3.68128-6.71744 5.80608-8.3968 6.36928-1.96096 0.5888-4.04992 0.5632-6.28736-0.06144a13.1584 13.1584 0 0 1-5.71904-3.31264c-1.62304-1.6384-2.56512-3.2768-2.79552-4.9152a7.45984 7.45984 0 0 1 1.024-4.83328c0.92672-1.57696 2.3296-3.26144 4.224-5.03296l13.07136-12.32896c1.61792-1.5104 2.39616-3.09248 2.34496-4.73088-0.06656-1.65376-0.80384-3.18976-2.24256-4.608-1.39776-1.39776-2.92864-2.1504-4.58752-2.24256-1.664-0.09728-3.30752 0.64-4.94592 2.17088l-16.18432 15.25248c-3.2512 3.072-5.16096 6.00064-5.71904 8.81152-0.44032 2.33984-0.15872 4.80256 0.82432 7.36768 0.98304 2.57536 2.62656 5.01248 4.90496 7.27552 1.8944 1.88928 3.77856 3.37408 5.6576 4.44928 1.89952 1.1008 3.87072 1.85344 5.94944 2.31936 2.08384 0.45056 4.32128 0.66048 6.67136 0.6144l-1.03424 0.97792c-1.46944 1.36704-2.18112 2.85696-2.14528 4.45952zM604.2112 633.46176c0.16384 1.68448 0.73216 3.01056 1.6896 3.97312 1.16224 1.15712 2.52416 1.8432 4.13184 2.10944 1.60256 0.26112 2.82112 0.00512 3.6608-0.78336 0.47616-0.46592 1.23904-1.77664 2.3296-3.9168 1.07008-2.1504 2.38592-3.96288 3.91168-5.41696 1.65888-1.5104 3.17952-2.8928 4.52608-4.13696 1.34656-1.23392 2.97472-2.77504 4.8896-4.58752 3.03616-2.85696 4.97664-5.64224 5.8368-8.33024 0.84992-2.70848 0.52736-5.65248-1.00864-8.81664-1.52064-3.16416-4.36736-6.83008-8.50432-10.96704-3.71712-3.712-7.26016-6.37952-10.62912-8.02816-3.3536-1.65888-6.30272-2.432-8.84736-2.3296-2.52928 0.10752-4.52096 0.83456-5.94944 2.18112-0.9216 0.8704-1.28 1.9712-1.1008 3.29728s0.79872 2.51392 1.85856 3.57376c1.17248 1.17248 2.12992 1.76128 2.85184 1.77152 0.73728 0 2.10944-0.1024 4.13184-0.33792 2.02752-0.22016 3.93216 0 5.71904 0.66048s3.87584 2.19648 6.272 4.58752c2.79552 2.78528 4.13184 5.09952 4.01408 6.92736-0.12288 1.83296-1.2032 3.81952-3.24608 5.98016a198.96832 198.96832 0 0 1-6.784-4.32128 323.85024 323.85024 0 0 1-7.25504-5.00736l-5.26848-3.69664c-3.38944-2.3296-6.7072-3.56864-9.91232-3.73248-3.22048-0.14336-5.93408 0.83456-8.17152 2.944a10.25024 10.25024 0 0 0-3.11808 5.8112c-0.42496 2.32448-0.13824 4.80256 0.8704 7.39328 0.9984 2.62144 2.70848 5.13024 5.13536 7.54688 2.65728 2.64704 5.43744 4.66944 8.32512 6.0672a44.5184 44.5184 0 0 0 10.09152 3.34848c-0.46592 2.46272-0.60928 4.5568-0.45056 6.23616z m10.4448-16.88064c-2.82112 2.66752-5.28384 4.16256-7.3728 4.46976-1.85344 0.32256-3.93216 0.02048-6.21056-0.89088a18.36032 18.36032 0 0 1-6.24128-4.16256c-1.74592-1.7408-2.72896-3.56352-2.94912-5.45792-0.20992-1.90976 0.29696-3.43552 1.53088-4.58752a4.54656 4.54656 0 0 1 4.1728-1.25952c1.59744 0.29184 3.02592 0.82944 4.26496 1.61792 1.23392 0.7936 3.42016 2.28352 6.5536 4.4544 3.11296 2.18112 5.59616 3.74272 7.424 4.71552l-1.17248 1.1008zM645.90848 642.39104a24.2688 24.2688 0 0 1 5.43232-3.1488c1.71008-0.69632 3.328-0.896 4.82816-0.59904 1.5104 0.2816 2.94912 1.12128 4.33664 2.47808 1.01376 1.024 2.00704 2.37056 2.95936 4.02432 0.95744 1.664 1.60256 2.67264 1.96096 3.03616 0.91648 0.91136 2.0992 1.4592 3.5328 1.6384a4.29056 4.29056 0 0 0 3.66592-1.1264c1.41312-1.33632 1.6128-3.34336 0.60416-6.02624a19.3792 19.3792 0 0 0-4.48-6.95296c-1.99168-1.97632-3.9936-3.1488-6.05184-3.5328-2.03776-0.36864-4.45952-0.3328-7.2704 0.11264 1.60256-1.64352 2.49344-3.2256 2.66752-4.72064 0.1536-1.48992-0.54784-3.02592-2.10944-4.58752-3.06688-3.0464-6.43584-2.85696-10.10688 0.59392l-22.73792 21.42208c-1.62816 1.54112-2.432 3.13856-2.39104 4.80256 0.03584 1.67936 0.73728 3.18464 2.08896 4.54144 1.38752 1.37728 2.94912 2.1248 4.66944 2.24256s3.42016-0.60416 5.06368-2.17088l6.81984-6.43072c2.46784-2.30912 4.63872-4.18304 6.51776-5.59616zM723.70176 675.95776l-36.06016 33.95072a6.44608 6.44608 0 0 1-4.8896 1.85856c-1.6384-0.05632-3.23072-0.96256-4.5312-2.2528-1.31072-1.3056-1.5616-2.33472-1.6896-3.94752 0.01024-1.59744 1.57184-2.29888 3.05152-3.69664l0.8192-0.76288c-5.30944-2.82624-5.6064-1.13664-7.59808-1.64864-2.05312-0.47104-4.8128-2.11456-6.64064-3.14368a25.44128 25.44128 0 0 1-5.32992-4.1472 22.91712 22.91712 0 0 1-5.05344-7.39328 19.62496 19.62496 0 0 1-1.4336-8.2688c0.10752-2.8672 0.9216-5.63712 2.24256-8.25344 1.38752-2.67776 3.31776-5.12 5.71904-7.36768 5.10976-4.80768 10.61888-7.03488 16.38912-6.8352 5.6832 0.13312 11.1104 2.77504 15.85152 7.5008 2.71872 2.70336 4.97664 5.75488 6.05696 8.41728 1.00864 2.59072 0.18432 4.14208 2.5344 9.75872l12.05248-11.36128c1.67936-1.59232 2.6624-3.09248 4.29056-3.1488 1.63328-0.04608 2.40128-0.0768 3.88096 1.38752 1.41824 1.408 2.25792 3.05664 2.25792 4.54144-0.06656 1.52064-0.39424 3.37408-1.92 4.8128z m-34.29376 12.45184c2.20672-2.05824 3.61984-4.20352 4.4288-6.47168a11.8272 11.8272 0 0 0 0.27136-6.67136 12.94848 12.94848 0 0 0-3.33824-5.81632 13.23008 13.23008 0 0 0-5.89824-3.41504 12.32896 12.32896 0 0 0-6.81984 0.32768c-2.35008 0.72704-4.53632 2.10944-6.64064 4.08576-2.2016 2.06336-3.72736 4.20352-4.46976 6.52288a10.73664 10.73664 0 0 0-0.26624 6.55872c0.5888 2.0736 1.72032 3.9936 3.31264 5.59104 1.65888 1.65376 3.59936 2.81088 5.67808 3.50208a12.0832 12.0832 0 0 0 6.78912 0.0256c2.30912-0.66048 4.66432-2.06336 6.95296-4.23936z" fill="#CCCCCC" p-id="19551"></path></svg>