<?xml version="1.0" standalone="no"?><!DOCTYPE svg PUBLIC "-//W3C//DTD SVG 1.1//EN" "http://www.w3.org/Graphics/SVG/1.1/DTD/svg11.dtd"><svg t="1548646008265" class="icon" style="" viewBox="0 0 1024 1024" version="1.1" xmlns="http://www.w3.org/2000/svg" p-id="20601" xmlns:xlink="http://www.w3.org/1999/xlink" width="16" height="16"><defs><style type="text/css"></style></defs><path d="M633.092866 1023.999988a218.513773 218.513773 0 0 1-31.457828-2.266691c-42.059704-6.116467-70.447305-22.654913-77.10346-26.840495-10.937682-4.989118-75.352472-36.926669-95.224992-104.555602-14.643541-49.819221-1.427176-105.431097 39.277311-165.28852 114.377928-168.202836 248.976176-405.365836 254.469003-415.092217 2.074801-3.993693 17.44992-32.381295 46.856933-58.694095 41.867815-37.406392 92.346655-52.769517 145.823763-44.482305 32.381295 5.025097 57.746642 20.388223 75.352472 45.741577 42.419496 61.020751 23.074671 158.656351 22.235156 162.781968-0.215875 1.079376-23.170615 114.030129-62.016176 237.462827-52.925427 168.010947-109.005032 274.869219-166.667723 317.552562-56.979085 42.167641-110.312277 53.680991-151.544459 53.680991zM887.40596 239.24531c-34.168262 0-65.542139 12.436816-93.545962 37.178523a190.689846 190.689846 0 0 0-40.080847 49.675305l-0.371786 0.683605c-1.379203 2.398614-139.119636 245.774026-256.13604 417.814645-34.504068 50.742688-46.197314 96.412306-34.779909 135.73759 16.478481 56.619293 76.503807 83.088003 77.115453 83.351851a17.989608 17.989608 0 0 1 2.902324 1.583085c0.203882 0.131924 25.785105 16.934218 65.686056 22.391066 53.045358 7.267802 105.455083-7.951407 155.778013-45.189896 50.898598-37.670239 104.19581-141.350348 154.110976-299.826802 38.377831-121.669716 60.972778-233.073363 61.164668-234.188719 0.179896-0.89948 17.186072-87.405509-16.790301-136.133361-12.148982-17.425934-29.203131-27.584066-52.133885-31.181987a149.721512 149.721512 0 0 0-22.91876-1.894905z m-149.085879 78.962386z" fill="#040000" p-id="20602"></path><path d="M619.360799 891.368604a17.353975 17.353975 0 0 1-17.329989-16.586419c-2.026829-45.093951-20.136368-174.775039-74.872749-178.888663a17.349178 17.349178 0 0 1 2.602496-34.600013c24.429888 1.83494 45.345806 15.590994 62.160093 40.836411 11.993072 18.085553 22.043266 42.359531 29.730826 72.162314a504.416619 504.416619 0 0 1 11.273487 59.341721c28.987255-25.041535 67.161204-41.532009 113.934185-49.171596 50.203-8.215254 97.731544-4.233554 123.264795-2.086794 3.597922 0.299827 6.776086 0.563674 9.378582 0.74357a17.347979 17.347979 0 1 1-2.398614 34.612006c-2.758407-0.191889-6.080488-0.46773-9.906278-0.791542-47.864351-4.029672-175.014901-14.703506-233.780954 67.161203a17.353975 17.353975 0 0 1-14.05588 7.267802z" fill="#040000" p-id="20603"></path><path d="M565.260051 1012.29475a17.353975 17.353975 0 0 1-15.818862-24.441881l54.124734-120.914153a17.34558 17.34558 0 1 1 31.66171 14.175811L581.078913 1002.02868a17.353975 17.353975 0 0 1-15.818862 10.26607zM201.989897 733.227955c-69.044116 0-117.66403-50.63475-125.615437-59.449658-5.996536-5.097056-30.282507-27.200287-48.751838-65.482173-19.009019-39.397242-35.463514-104.339727-5.912584-189.994248 23.398484-67.832816 108.477337-153.403385 252.885918-254.33708 106.042743-74.105192 206.880493-129.908957 207.911897-130.472631 3.597922-2.026829 90.967452-49.795235 161.906473-27.644031 29.442992 9.186693 51.738113 28.783373 66.261724 58.13042 23.986144 48.559949 24.47786 101.269501 1.36721 152.443939-16.226627 35.979216-38.713637 59.113852-41.915787 62.363975-7.543642 8.095324-193.448253 207.767981-319.53142 367.371784-44.878076 56.799189-93.953727 86.098264-145.871735 87.105683z m401.252213-698.596448c-50.370903 0-103.332309 28.879318-103.967942 29.227116-1.019411 0.563674-100.477958 55.563903-205.057546 128.721643C158.059274 287.781272 75.16316 369.75392 54.523083 429.611343 5.615335 571.381448 98.333775 646.949795 99.281228 647.693365a17.44992 17.44992 0 0 1 2.398614 2.326656c0.395771 0.46773 43.618803 49.783242 102.624718 48.487991 40.944348-0.887487 80.989216-25.761119 119.031241-73.913303 128.98549-163.249697 319.723309-367.731576 321.630207-369.782392l0.539688-0.551681a190.689846 190.689846 0 0 0 35.343583-53.141303c18.481324-41.639946 17.989608-82.60828-1.307245-121.76566-10.290056-20.80798-25.185451-34.012352-45.417764-40.368681a103.380281 103.380281 0 0 0-30.88216-4.353485z" fill="#040000" p-id="20604"></path><path d="M192.011661 537.884797a17.341982 17.341982 0 0 1-13.887977-27.751968c59.389693-79.154276 11.261495-194.119865-6.860037-237.390869-1.858926-4.437437-3.465998-8.27522-4.725271-11.47737a17.34558 17.34558 0 0 1 32.297343-12.664684c1.115356 2.842358 2.650469 6.500245 4.425444 10.793765 17.150093 40.944348 58.382275 139.419463 26.996405 226.405214 15.291167-5.996536 33.412699-12.580733 52.769517-18.793144 73.505539-23.626352 127.030619-29.119179 159.064115-16.346557 15.710924 6.260384 27.056371 17.198065 32.813046 31.601745a17.344381 17.344381 0 1 1-32.213392 12.868566c-1.403189-3.51397-4.329499-8.611026-13.444234-12.256919-23.662331-9.438548-71.814516-3.346067-135.593673 17.150093a950.534914 950.534914 0 0 0-94.39747 36.315022 17.317996 17.317996 0 0 1-7.243816 1.547106z" fill="#040000" p-id="20605"></path><path d="M76.9981 667.649837a17.341982 17.341982 0 0 1-12.976504-28.855331l115.061534-129.76504a17.341982 17.341982 0 1 1 25.905035 22.95474l-115.013561 129.76504a17.306003 17.306003 0 0 1-12.976504 5.900591z" fill="#040000" p-id="20606"></path></svg>