<?xml version="1.0" standalone="no"?><!DOCTYPE svg PUBLIC "-//W3C//DTD SVG 1.1//EN" "http://www.w3.org/Graphics/SVG/1.1/DTD/svg11.dtd"><svg t="1548645918953" class="icon" style="" viewBox="0 0 1024 1024" version="1.1" xmlns="http://www.w3.org/2000/svg" p-id="18545" xmlns:xlink="http://www.w3.org/1999/xlink" width="16" height="16"><defs><style type="text/css"></style></defs><path d="M785.49 112.12a38.56 38.56 0 0 0-25.41 9.53H630a22.7 22.7 0 0 0-22.67 22.67v222.6A22.7 22.7 0 0 0 630 389.6h116.72v483.52a38.77 38.77 0 1 0 77.54 0V150.89a38.81 38.81 0 0 0-38.77-38.77zM743.1 370.54H630a3.66 3.66 0 0 1-3.62-3.62v-76.28h76.69a9.53 9.53 0 1 0 0-19.06h-76.71v-25.42h76.69a9.53 9.53 0 1 0 0-19h-76.69v-28.32h76.69a9.53 9.53 0 1 0 0-19.06h-76.69v-35.46a3.67 3.67 0 0 1 3.64-3.62h113.1z m62.11 502.58a19.72 19.72 0 1 1-39.44 0V150.89a19.72 19.72 0 0 1 39.44 0z m-230.04 17.55L498.72 287A99.25 99.25 0 0 0 430 204.67a26.44 26.44 0 0 0 3.19-12.62v-38.3a26.64 26.64 0 0 0-26.61-26.61h-38.36a26.64 26.64 0 0 0-26.61 26.61v38.3a26.32 26.32 0 0 0 3.19 12.62A99.27 99.27 0 0 0 276 287l-76.42 603.67a19.06 19.06 0 0 0 18.9 21.45h337.79a19.06 19.06 0 0 0 18.9-21.45zM360.66 153.75a7.57 7.57 0 0 1 7.56-7.56h38.31a7.57 7.57 0 0 1 7.56 7.56v38.3a7.58 7.58 0 0 1-7.56 7.57h-38.31a7.58 7.58 0 0 1-7.56-7.57zM218.48 893.07l76.45-603.73a80.28 80.28 0 0 1 79.65-70.2h25.59a80.29 80.29 0 0 1 79.65 70.2l76.45 603.73z" p-id="18546"></path></svg>