<?xml version="1.0" standalone="no"?><!DOCTYPE svg PUBLIC "-//W3C//DTD SVG 1.1//EN" "http://www.w3.org/Graphics/SVG/1.1/DTD/svg11.dtd"><svg t="1548643357990" class="icon" style="" viewBox="0 0 1024 1024" version="1.1" xmlns="http://www.w3.org/2000/svg" p-id="13994" xmlns:xlink="http://www.w3.org/1999/xlink" width="16" height="16"><defs><style type="text/css"></style></defs><path d="M436 862l151 0 0 50-151 0 0-50Z" p-id="13995"></path><path d="M208 938l606 0 0 50-606 0 0-50Z" p-id="13996"></path><path d="M973.9 79l-925 0C29.3 79 6 95.6 6 116.5l0 682.4C6 819.8 29.3 837 48.9 837l925 0c19.6 0 43.1-17.2 43.1-38.1L1017 116.5C1017 95.6 993.5 79 973.9 79zM562 787 461 787l0-27 101 0L562 787zM966 736 56 736 56 129l910 0L966 736z" p-id="13997"></path></svg>