<?xml version="1.0" standalone="no"?><!DOCTYPE svg PUBLIC "-//W3C//DTD SVG 1.1//EN" "http://www.w3.org/Graphics/SVG/1.1/DTD/svg11.dtd"><svg t="1548646081644" class="icon" style="" viewBox="0 0 1024 1024" version="1.1" xmlns="http://www.w3.org/2000/svg" p-id="23390" xmlns:xlink="http://www.w3.org/1999/xlink" width="16" height="16"><defs><style type="text/css"></style></defs><path d="M561.4 815.5H262.9c-45.1 0-81.7-36.7-81.7-81.7V264.7c0-45.1 36.7-81.7 81.7-81.7h369.6c5.9 0 10.7 4.8 10.7 10.7v540.1c-0.1 45-36.7 81.7-81.8 81.7zM262.9 204.3c-33.3 0-60.4 27.1-60.4 60.4v469.1c0 33.3 27.1 60.4 60.4 60.4h298.5c33.3 0 60.4-27.1 60.4-60.4V204.3H262.9z" fill="#353535" p-id="23391"></path><path d="M202.5 303.8h-95.9c-21.6 0-39.1-17.5-39.1-39.1s17.5-39.1 39.1-39.1h107.6l-6.6 15c-3.4 7.7-5.1 15.8-5.1 24.1v39.1zM106.6 247c-9.8 0-17.8 8-17.8 17.8s8 17.8 17.8 17.8h74.6v-17.8c0-6 0.7-12 2-17.8h-76.6zM923.8 303.8H632.5v-21.3h291.4c9.8 0 17.8-8 17.8-17.8s-8-17.8-17.8-17.8H632.5v-21.3h291.4c21.6 0 39.1 17.5 39.1 39.1-0.1 21.6-17.6 39.1-39.2 39.1z" fill="#353535" p-id="23392"></path><path d="M632.5 865.3H312.7c-36.6 0-69-24.7-78.7-60.2l-5-18.1 18.1 5c5.3 1.5 10.7 2.2 15.9 2.2h298.5c33.3 0 60.4-27.1 60.4-60.4V282.5h92.4v501c-0.1 45.1-36.8 81.8-81.8 81.8z m-371-49.8c10.9 17.3 30 28.4 51.1 28.4h319.8c33.3 0 60.4-27.1 60.4-60.4V303.8h-49.7v430c0 45.1-36.7 81.7-81.7 81.7H261.5zM713.9 247h-92.1v-64h10.7c32.3 0 61.7 19.2 74.8 49l6.6 15z m-70.8-21.4h35.3c-9-10.6-21.5-17.9-35.3-20.4v20.4z" fill="#353535" p-id="23393"></path></svg>