<?xml version="1.0" standalone="no"?><!DOCTYPE svg PUBLIC "-//W3C//DTD SVG 1.1//EN" "http://www.w3.org/Graphics/SVG/1.1/DTD/svg11.dtd"><svg t="1549725983834" class="icon" style="" viewBox="0 0 1024 1024" version="1.1" xmlns="http://www.w3.org/2000/svg" p-id="1346" xmlns:xlink="http://www.w3.org/1999/xlink" width="64" height="64"><defs><style type="text/css"></style></defs><path d="M815.262 128L1024 356.43H496.246L248.124 128z" fill="#344A5E" p-id="1347"></path><path d="M441.108 356.43h519.876V896H441.108z" fill="#F5B54C" p-id="1348"></path><path d="M496.246 356.43L248.124 128 0 356.43z" fill="#F26F5A" p-id="1349"></path><path d="M63.016 356.43h378.092V896H63.016z" fill="#FFD15C" p-id="1350"></path><path d="M252.062 677.416c-47.262 0-84.676 37.416-84.676 84.676v131.938h171.324v-131.938c-1.972-45.292-39.386-84.676-86.648-84.676z" fill="#425A6B" p-id="1351"></path><path d="M836.924 470.646H565.17c-11.816 0-19.692 9.846-19.692 19.692v271.754c0 11.816 9.846 19.692 19.692 19.692h271.754c11.816 0 19.692-9.846 19.692-19.692V490.338c0-11.814-7.878-19.692-19.692-19.692z m-19.694 135.878h-96.492v-96.492h96.492v96.492z m-135.876-96.494v96.492h-96.492v-96.492h96.492z m-96.492 135.878h96.492V742.4h-96.492v-96.492z m135.876 96.492v-96.492h96.492V742.4h-96.492z" fill="#FFFFFF" p-id="1352"></path><path d="M252.062 425.354c-43.324 0-76.8 35.446-76.8 76.8s35.446 76.8 76.8 76.8c43.324 0 76.8-35.446 76.8-76.8s-33.478-76.8-76.8-76.8z" fill="#F26F5A" p-id="1353"></path><path d="M488.37 185.108h210.706L671.508 128H458.83zM616.37 224.492H352.492l39.384 35.446H640zM793.6 299.324H580.924l29.538 57.106h212.676zM903.878 224.492H663.63l23.632 35.446h250.092zM744.37 185.108h122.092L815.262 128h-100.432zM535.63 299.324H435.2l61.046 57.106h70.892zM838.892 299.324l29.538 57.106H1024l-51.2-57.106zM443.076 185.108L413.538 128h-165.414l61.046 57.108z" fill="#425A6B" p-id="1354"></path></svg>